<svg width="88" height="100" viewBox="0 0 88 100" fill="none" xmlns="http://www.w3.org/2000/svg">
<path d="M50 0H62.375C63.275 4.46875 65.75 10.1063 70.0938 15.7C74.3438 21.1813 79.9813 25 87.5 25V37.5C76.5438 37.5 68.3125 32.4125 62.5 26.0688V68.75C62.5 74.9307 60.6672 80.9725 57.2334 86.1116C53.7996 91.2506 48.9191 95.256 43.2089 97.6212C37.4987 99.9865 31.2153 100.605 25.1534 99.3995C19.0915 98.1938 13.5233 95.2175 9.15293 90.8471C4.78254 86.4767 1.80626 80.9085 0.600474 74.8466C-0.605314 68.7847 0.0135401 62.5013 2.37878 56.7911C4.74402 51.081 8.74941 46.2004 13.8884 42.7666C19.0275 39.3328 25.0693 37.5 31.25 37.5V50C27.5416 50 23.9165 51.0997 20.8331 53.1599C17.7496 55.2202 15.3464 58.1486 13.9273 61.5747C12.5081 65.0008 12.1368 68.7708 12.8603 72.4079C13.5838 76.0451 15.3695 79.386 17.9918 82.0083C20.614 84.6305 23.9549 86.4163 27.5921 87.1397C31.2292 87.8632 34.9992 87.4919 38.4253 86.0727C41.8514 84.6536 44.7798 82.2504 46.8401 79.1669C48.9003 76.0835 50 72.4584 50 68.75V0Z" fill="black"/>
</svg>
