<svg width="100" height="100" viewBox="0 0 100 100" fill="none" xmlns="http://www.w3.org/2000/svg">
<path d="M20.558 49.6875C20.558 55.2455 22.1205 60.6696 25.067 65.3348L25.7589 66.4509L22.7902 77.2991L33.9286 74.375L35 75.0223C39.5089 77.7009 44.6875 79.1295 49.9777 79.1295H50C66.2054 79.1295 79.7545 65.9375 79.7545 49.7098C79.7545 41.8527 76.3616 34.4643 70.8036 28.9062C65.2232 23.3259 57.8571 20.2679 50 20.2679C33.7723 20.2679 20.5804 33.4598 20.558 49.6875ZM61.3393 66.5179C58.5268 66.942 56.3393 66.7188 50.7366 64.308C42.5223 60.7589 36.942 52.8125 35.8036 51.2054C35.7143 51.0714 35.6473 51.0045 35.625 50.9598C35.1786 50.3795 32.0089 46.1607 32.0089 41.808C32.0089 37.7009 34.0179 35.5804 34.9554 34.5982C35.0223 34.5312 35.067 34.4866 35.1116 34.4196C35.9152 33.5268 36.875 33.3036 37.4777 33.3036C38.058 33.3036 38.6607 33.3036 39.1741 33.3259C39.2411 33.3259 39.2857 33.3259 39.3527 33.3259C39.8661 33.3259 40.5134 33.3259 41.1607 34.8438C41.4286 35.4911 41.8304 36.4732 42.2545 37.4777C42.9911 39.2634 43.75 41.1161 43.8839 41.4062C44.1071 41.8527 44.2634 42.3661 43.9509 42.9464C43.192 44.4643 42.4107 45.2679 41.875 45.8482C41.183 46.5625 40.8705 46.8973 41.3616 47.7679C44.7768 53.6384 48.192 55.6696 53.3929 58.2812C54.2857 58.7277 54.7991 58.6607 55.3125 58.058C55.8259 57.4777 57.5223 55.4688 58.1027 54.5982C58.683 53.7054 59.2857 53.8616 60.0893 54.1518C60.8929 54.442 65.2455 56.5848 66.1384 57.0312C66.317 57.1205 66.4732 57.1875 66.6071 57.2545C67.2321 57.567 67.6562 57.7679 67.8348 58.058C68.0357 58.4821 68.0357 60.2679 67.2991 62.3214C66.5625 64.3973 63.0357 66.2723 61.3393 66.5179ZM100 14.2857C100 6.40625 93.5938 0 85.7143 0H14.2857C6.40625 0 0 6.40625 0 14.2857V85.7143C0 93.5937 6.40625 100 14.2857 100H85.7143C93.5938 100 100 93.5937 100 85.7143V14.2857ZM33.058 80.7812L14.2857 85.7143L19.308 67.3661C16.2054 62.0089 14.5759 55.9152 14.5759 49.6652C14.5982 30.1562 30.4687 14.2857 49.9777 14.2857C59.442 14.2857 68.3259 17.9688 75.0223 24.6652C81.6964 31.3616 85.7143 40.2455 85.7143 49.7098C85.7143 69.2188 69.4866 85.0893 49.9777 85.0893C44.0402 85.0893 38.2143 83.5937 33.058 80.7812Z" fill="black"/>
</svg>
