<svg width="671" height="565" viewBox="0 0 671 565" fill="none" xmlns="http://www.w3.org/2000/svg">
<rect width="670" height="280" fill="#A87575"/>
<g filter="url(#filter0_d_5_111)">
<mask id="path-1-inside-1_5_111" fill="white">
<path d="M166.663 128C165.596 128 165.063 127.467 165.063 126.4V44.288C165.063 43.2213 165.596 42.688 166.663 42.688H205.767C206.876 42.688 207.73 42.9653 208.327 43.52L223.047 58.112C223.516 58.5387 223.815 58.9013 223.943 59.2C224.071 59.4987 224.135 59.9893 224.135 60.672V78.208C224.135 78.7627 223.772 79.4027 223.047 80.128L214.215 88.96L212.807 90.24L216.775 96.192L224.775 111.552C224.988 111.936 225.116 112.32 225.159 112.704C225.244 113.045 225.287 113.493 225.287 114.048V126.4C225.287 127.467 224.754 128 223.687 128H203.463C202.524 128 201.884 127.573 201.543 126.72L192.775 104.192H191.687V126.4C191.687 127.467 191.154 128 190.087 128H166.663ZM194.567 77.44C196.316 77.44 197.724 76.8853 198.791 75.776C199.9 74.6667 200.455 73.2587 200.455 71.552C200.455 69.8453 199.9 68.4587 198.791 67.392C197.724 66.2827 196.316 65.728 194.567 65.728C192.86 65.728 191.452 66.2827 190.343 67.392C189.276 68.4587 188.743 69.8453 188.743 71.552C188.743 73.2587 189.276 74.6667 190.343 75.776C191.452 76.8853 192.86 77.44 194.567 77.44Z"/>
<path d="M247.072 128C246.091 128 245.237 127.637 244.512 126.912L231.712 114.112C231.029 113.429 230.688 112.576 230.688 111.552V59.2C230.688 58.1333 231.221 57.6 232.288 57.6H252.512C253.579 57.6 254.112 58.1333 254.112 59.2V101.888C254.112 103.637 255.008 104.512 256.8 104.512H259.488V59.2C259.488 58.1333 260.021 57.6 261.088 57.6H281.312C282.379 57.6 282.912 58.1333 282.912 59.2V126.4C282.912 127.467 282.379 128 281.312 128H247.072Z"/>
<path d="M289.913 128C288.846 128 288.313 127.467 288.313 126.4V59.2C288.313 58.1333 288.846 57.6 289.913 57.6H324.153C325.134 57.6 325.988 57.9627 326.713 58.688L339.513 71.488C340.196 72.1707 340.537 73.024 340.537 74.048V126.4C340.537 127.467 340.004 128 338.937 128H318.713C317.646 128 317.113 127.467 317.113 126.4V83.712C317.113 81.9627 316.217 81.088 314.425 81.088H311.737V126.4C311.737 127.467 311.204 128 310.137 128H289.913Z"/>
<path d="M389.097 128C387.988 128 387.134 127.723 386.537 127.168L379.433 120L367.337 107.968C366.868 107.499 366.569 107.136 366.441 106.88C366.356 106.581 366.313 106.091 366.313 105.408V65.28C366.313 64.5547 366.356 64.064 366.441 63.808C366.569 63.552 366.868 63.1893 367.337 62.72L376.937 52.992L386.537 43.52C386.921 43.136 387.305 42.9013 387.689 42.816C388.073 42.7307 388.542 42.688 389.097 42.688H407.017C408.084 42.688 408.617 43.2213 408.617 44.288V61.952C408.617 62.336 408.574 62.6987 408.489 63.04C408.446 63.3387 408.254 63.6587 407.913 64L399.465 72.32L392.745 79.168V92.608L400.297 100.288L407.913 107.712C408.254 108.011 408.446 108.331 408.489 108.672C408.574 109.013 408.617 109.376 408.617 109.76V126.4C408.617 127.467 408.084 128 407.017 128H389.097Z"/>
<path d="M430.322 128C429.341 128 428.487 127.637 427.762 126.912L414.962 114.112C414.279 113.429 413.938 112.576 413.938 111.552V74.048C413.938 73.024 414.279 72.1707 414.962 71.488L427.762 58.688C428.487 57.9627 429.341 57.6 430.322 57.6H464.562C465.629 57.6 466.162 58.1333 466.162 59.2V126.4C466.162 127.467 465.629 128 464.562 128H448.498C447.901 128 447.41 127.915 447.026 127.744C446.642 127.573 446.279 127.296 445.938 126.912L442.738 123.712L439.538 126.912C438.813 127.637 437.959 128 436.978 128H430.322ZM439.922 106.688H440.178C441.031 106.688 441.671 106.453 442.098 105.984C442.525 105.515 442.738 104.853 442.738 104V78.912H440.05C439.197 78.912 438.535 79.1467 438.066 79.616C437.597 80.0853 437.362 80.7467 437.362 81.6V104C437.362 104.853 437.575 105.515 438.002 105.984C438.471 106.453 439.111 106.688 439.922 106.688Z"/>
<path d="M473.163 128C472.096 128 471.563 127.467 471.563 126.4V59.2C471.563 58.1333 472.096 57.6 473.163 57.6H489.675C490.4 57.6 491.104 57.9627 491.787 58.688L494.923 61.824L498.635 58.368C499.232 57.856 499.915 57.6 500.683 57.6H505.483C506.55 57.6 507.083 58.1333 507.083 59.2V80.96C507.083 81.6427 507.019 82.112 506.891 82.368C506.806 82.5813 506.571 82.816 506.187 83.072L494.987 90.688V126.4C494.987 127.467 494.454 128 493.387 128H473.163Z"/>
</mask>
<path d="M166.663 128C165.596 128 165.063 127.467 165.063 126.4V44.288C165.063 43.2213 165.596 42.688 166.663 42.688H205.767C206.876 42.688 207.73 42.9653 208.327 43.52L223.047 58.112C223.516 58.5387 223.815 58.9013 223.943 59.2C224.071 59.4987 224.135 59.9893 224.135 60.672V78.208C224.135 78.7627 223.772 79.4027 223.047 80.128L214.215 88.96L212.807 90.24L216.775 96.192L224.775 111.552C224.988 111.936 225.116 112.32 225.159 112.704C225.244 113.045 225.287 113.493 225.287 114.048V126.4C225.287 127.467 224.754 128 223.687 128H203.463C202.524 128 201.884 127.573 201.543 126.72L192.775 104.192H191.687V126.4C191.687 127.467 191.154 128 190.087 128H166.663ZM194.567 77.44C196.316 77.44 197.724 76.8853 198.791 75.776C199.9 74.6667 200.455 73.2587 200.455 71.552C200.455 69.8453 199.9 68.4587 198.791 67.392C197.724 66.2827 196.316 65.728 194.567 65.728C192.86 65.728 191.452 66.2827 190.343 67.392C189.276 68.4587 188.743 69.8453 188.743 71.552C188.743 73.2587 189.276 74.6667 190.343 75.776C191.452 76.8853 192.86 77.44 194.567 77.44Z" fill="#7C1C1C"/>
<path d="M247.072 128C246.091 128 245.237 127.637 244.512 126.912L231.712 114.112C231.029 113.429 230.688 112.576 230.688 111.552V59.2C230.688 58.1333 231.221 57.6 232.288 57.6H252.512C253.579 57.6 254.112 58.1333 254.112 59.2V101.888C254.112 103.637 255.008 104.512 256.8 104.512H259.488V59.2C259.488 58.1333 260.021 57.6 261.088 57.6H281.312C282.379 57.6 282.912 58.1333 282.912 59.2V126.4C282.912 127.467 282.379 128 281.312 128H247.072Z" fill="#7C1C1C"/>
<path d="M289.913 128C288.846 128 288.313 127.467 288.313 126.4V59.2C288.313 58.1333 288.846 57.6 289.913 57.6H324.153C325.134 57.6 325.988 57.9627 326.713 58.688L339.513 71.488C340.196 72.1707 340.537 73.024 340.537 74.048V126.4C340.537 127.467 340.004 128 338.937 128H318.713C317.646 128 317.113 127.467 317.113 126.4V83.712C317.113 81.9627 316.217 81.088 314.425 81.088H311.737V126.4C311.737 127.467 311.204 128 310.137 128H289.913Z" fill="#7C1C1C"/>
<path d="M389.097 128C387.988 128 387.134 127.723 386.537 127.168L379.433 120L367.337 107.968C366.868 107.499 366.569 107.136 366.441 106.88C366.356 106.581 366.313 106.091 366.313 105.408V65.28C366.313 64.5547 366.356 64.064 366.441 63.808C366.569 63.552 366.868 63.1893 367.337 62.72L376.937 52.992L386.537 43.52C386.921 43.136 387.305 42.9013 387.689 42.816C388.073 42.7307 388.542 42.688 389.097 42.688H407.017C408.084 42.688 408.617 43.2213 408.617 44.288V61.952C408.617 62.336 408.574 62.6987 408.489 63.04C408.446 63.3387 408.254 63.6587 407.913 64L399.465 72.32L392.745 79.168V92.608L400.297 100.288L407.913 107.712C408.254 108.011 408.446 108.331 408.489 108.672C408.574 109.013 408.617 109.376 408.617 109.76V126.4C408.617 127.467 408.084 128 407.017 128H389.097Z" fill="#7C1C1C"/>
<path d="M430.322 128C429.341 128 428.487 127.637 427.762 126.912L414.962 114.112C414.279 113.429 413.938 112.576 413.938 111.552V74.048C413.938 73.024 414.279 72.1707 414.962 71.488L427.762 58.688C428.487 57.9627 429.341 57.6 430.322 57.6H464.562C465.629 57.6 466.162 58.1333 466.162 59.2V126.4C466.162 127.467 465.629 128 464.562 128H448.498C447.901 128 447.41 127.915 447.026 127.744C446.642 127.573 446.279 127.296 445.938 126.912L442.738 123.712L439.538 126.912C438.813 127.637 437.959 128 436.978 128H430.322ZM439.922 106.688H440.178C441.031 106.688 441.671 106.453 442.098 105.984C442.525 105.515 442.738 104.853 442.738 104V78.912H440.05C439.197 78.912 438.535 79.1467 438.066 79.616C437.597 80.0853 437.362 80.7467 437.362 81.6V104C437.362 104.853 437.575 105.515 438.002 105.984C438.471 106.453 439.111 106.688 439.922 106.688Z" fill="#7C1C1C"/>
<path d="M473.163 128C472.096 128 471.563 127.467 471.563 126.4V59.2C471.563 58.1333 472.096 57.6 473.163 57.6H489.675C490.4 57.6 491.104 57.9627 491.787 58.688L494.923 61.824L498.635 58.368C499.232 57.856 499.915 57.6 500.683 57.6H505.483C506.55 57.6 507.083 58.1333 507.083 59.2V80.96C507.083 81.6427 507.019 82.112 506.891 82.368C506.806 82.5813 506.571 82.816 506.187 83.072L494.987 90.688V126.4C494.987 127.467 494.454 128 493.387 128H473.163Z" fill="#7C1C1C"/>
<path d="M166.663 128C165.596 128 165.063 127.467 165.063 126.4V44.288C165.063 43.2213 165.596 42.688 166.663 42.688H205.767C206.876 42.688 207.73 42.9653 208.327 43.52L223.047 58.112C223.516 58.5387 223.815 58.9013 223.943 59.2C224.071 59.4987 224.135 59.9893 224.135 60.672V78.208C224.135 78.7627 223.772 79.4027 223.047 80.128L214.215 88.96L212.807 90.24L216.775 96.192L224.775 111.552C224.988 111.936 225.116 112.32 225.159 112.704C225.244 113.045 225.287 113.493 225.287 114.048V126.4C225.287 127.467 224.754 128 223.687 128H203.463C202.524 128 201.884 127.573 201.543 126.72L192.775 104.192H191.687V126.4C191.687 127.467 191.154 128 190.087 128H166.663ZM194.567 77.44C196.316 77.44 197.724 76.8853 198.791 75.776C199.9 74.6667 200.455 73.2587 200.455 71.552C200.455 69.8453 199.9 68.4587 198.791 67.392C197.724 66.2827 196.316 65.728 194.567 65.728C192.86 65.728 191.452 66.2827 190.343 67.392C189.276 68.4587 188.743 69.8453 188.743 71.552C188.743 73.2587 189.276 74.6667 190.343 75.776C191.452 76.8853 192.86 77.44 194.567 77.44Z" stroke="#DD4D4D" stroke-width="2" mask="url(#path-1-inside-1_5_111)"/>
<path d="M247.072 128C246.091 128 245.237 127.637 244.512 126.912L231.712 114.112C231.029 113.429 230.688 112.576 230.688 111.552V59.2C230.688 58.1333 231.221 57.6 232.288 57.6H252.512C253.579 57.6 254.112 58.1333 254.112 59.2V101.888C254.112 103.637 255.008 104.512 256.8 104.512H259.488V59.2C259.488 58.1333 260.021 57.6 261.088 57.6H281.312C282.379 57.6 282.912 58.1333 282.912 59.2V126.4C282.912 127.467 282.379 128 281.312 128H247.072Z" stroke="#DD4D4D" stroke-width="2" mask="url(#path-1-inside-1_5_111)"/>
<path d="M289.913 128C288.846 128 288.313 127.467 288.313 126.4V59.2C288.313 58.1333 288.846 57.6 289.913 57.6H324.153C325.134 57.6 325.988 57.9627 326.713 58.688L339.513 71.488C340.196 72.1707 340.537 73.024 340.537 74.048V126.4C340.537 127.467 340.004 128 338.937 128H318.713C317.646 128 317.113 127.467 317.113 126.4V83.712C317.113 81.9627 316.217 81.088 314.425 81.088H311.737V126.4C311.737 127.467 311.204 128 310.137 128H289.913Z" stroke="#DD4D4D" stroke-width="2" mask="url(#path-1-inside-1_5_111)"/>
<path d="M389.097 128C387.988 128 387.134 127.723 386.537 127.168L379.433 120L367.337 107.968C366.868 107.499 366.569 107.136 366.441 106.88C366.356 106.581 366.313 106.091 366.313 105.408V65.28C366.313 64.5547 366.356 64.064 366.441 63.808C366.569 63.552 366.868 63.1893 367.337 62.72L376.937 52.992L386.537 43.52C386.921 43.136 387.305 42.9013 387.689 42.816C388.073 42.7307 388.542 42.688 389.097 42.688H407.017C408.084 42.688 408.617 43.2213 408.617 44.288V61.952C408.617 62.336 408.574 62.6987 408.489 63.04C408.446 63.3387 408.254 63.6587 407.913 64L399.465 72.32L392.745 79.168V92.608L400.297 100.288L407.913 107.712C408.254 108.011 408.446 108.331 408.489 108.672C408.574 109.013 408.617 109.376 408.617 109.76V126.4C408.617 127.467 408.084 128 407.017 128H389.097Z" stroke="#DD4D4D" stroke-width="2" mask="url(#path-1-inside-1_5_111)"/>
<path d="M430.322 128C429.341 128 428.487 127.637 427.762 126.912L414.962 114.112C414.279 113.429 413.938 112.576 413.938 111.552V74.048C413.938 73.024 414.279 72.1707 414.962 71.488L427.762 58.688C428.487 57.9627 429.341 57.6 430.322 57.6H464.562C465.629 57.6 466.162 58.1333 466.162 59.2V126.4C466.162 127.467 465.629 128 464.562 128H448.498C447.901 128 447.41 127.915 447.026 127.744C446.642 127.573 446.279 127.296 445.938 126.912L442.738 123.712L439.538 126.912C438.813 127.637 437.959 128 436.978 128H430.322ZM439.922 106.688H440.178C441.031 106.688 441.671 106.453 442.098 105.984C442.525 105.515 442.738 104.853 442.738 104V78.912H440.05C439.197 78.912 438.535 79.1467 438.066 79.616C437.597 80.0853 437.362 80.7467 437.362 81.6V104C437.362 104.853 437.575 105.515 438.002 105.984C438.471 106.453 439.111 106.688 439.922 106.688Z" stroke="#DD4D4D" stroke-width="2" mask="url(#path-1-inside-1_5_111)"/>
<path d="M473.163 128C472.096 128 471.563 127.467 471.563 126.4V59.2C471.563 58.1333 472.096 57.6 473.163 57.6H489.675C490.4 57.6 491.104 57.9627 491.787 58.688L494.923 61.824L498.635 58.368C499.232 57.856 499.915 57.6 500.683 57.6H505.483C506.55 57.6 507.083 58.1333 507.083 59.2V80.96C507.083 81.6427 507.019 82.112 506.891 82.368C506.806 82.5813 506.571 82.816 506.187 83.072L494.987 90.688V126.4C494.987 127.467 494.454 128 493.387 128H473.163Z" stroke="#DD4D4D" stroke-width="2" mask="url(#path-1-inside-1_5_111)"/>
</g>
<g filter="url(#filter1_d_5_111)">
<path d="M6.96 256C6.16 256 5.76 255.6 5.76 254.8V193.216C5.76 192.416 6.16 192.016 6.96 192.016H39.84C40.64 192.016 41.04 192.416 41.04 193.216V203.584C41.04 204.384 40.64 204.784 39.84 204.784H21.744V220.816H37.44C38.24 220.816 38.64 221.216 38.64 222.016V232.384C38.64 233.184 38.24 233.584 37.44 233.584H21.744V254.8C21.744 255.6 21.344 256 20.544 256H6.96ZM60.6975 256C59.9615 256 59.3215 255.728 58.7775 255.184L49.1775 245.584C48.6335 245.072 48.3615 244.432 48.3615 243.664V215.536C48.3615 214.768 48.6335 214.128 49.1775 213.616L58.7775 204.016C59.3215 203.472 59.9615 203.2 60.6975 203.2H86.3775C87.1775 203.2 87.5775 203.6 87.5775 204.4V254.8C87.5775 255.6 87.1775 256 86.3775 256H76.3935C75.9775 256 75.6575 255.92 75.4335 255.76C75.2415 255.6 75.0175 255.408 74.7615 255.184L72.3615 252.784L69.9615 255.184C69.4495 255.728 68.8095 256 68.0415 256H60.6975ZM66.3135 244.816H69.6735C70.6975 244.816 71.4015 244.608 71.7855 244.192C72.1695 243.776 72.3615 243.04 72.3615 241.984V214.384H66.3135C65.2575 214.384 64.5375 214.592 64.1535 215.008C63.7695 215.424 63.5775 216.16 63.5775 217.216V241.984C63.5775 243.04 63.7695 243.776 64.1535 244.192C64.5375 244.608 65.2575 244.816 66.3135 244.816ZM98.472 256C97.672 256 97.272 255.6 97.272 254.8V247.024C97.272 246.288 97.512 245.808 97.992 245.584L107.784 239.776V234.784L97.992 229.504C97.512 229.216 97.272 228.72 97.272 228.016V212.704C97.272 212.352 97.32 212.064 97.416 211.84C97.544 211.616 97.72 211.424 97.944 211.264L108.168 203.776C108.52 203.52 108.808 203.36 109.032 203.296C109.256 203.232 109.48 203.2 109.704 203.2H121.368C122.168 203.2 122.568 203.6 122.568 204.4V211.936C122.568 212.48 122.52 212.848 122.424 213.04C122.36 213.232 122.2 213.392 121.944 213.52L112.872 218.416V223.984L122.568 228.784C123.112 229.008 123.384 229.488 123.384 230.224V244.96C123.384 245.76 123.112 246.4 122.568 246.88L112.344 255.376C111.832 255.792 111.192 256 110.424 256H98.472ZM144.488 256C143.752 256 143.112 255.728 142.568 255.184L134.552 247.216C134.04 246.672 133.784 246.032 133.784 245.296V214.384H131.768C130.968 214.384 130.568 213.984 130.568 213.184V204.4C130.568 203.6 130.968 203.2 131.768 203.2H133.784V197.2C133.784 196.4 134.184 196 134.984 196H147.752C148.552 196 148.952 196.4 148.952 197.2V203.2H153.608C154.408 203.2 154.807 203.6 154.807 204.4V213.184C154.807 213.984 154.408 214.384 153.608 214.384H148.952V240.016C148.952 240.624 149.144 241.12 149.528 241.504L154.232 246.256C154.552 246.544 154.712 247.024 154.712 247.696V254.8C154.712 255.6 154.312 256 153.512 256H144.488ZM194.329 256C193.689 256 193.049 255.792 192.409 255.376L184.585 250.096L179.209 241.456C178.985 241.04 178.793 240.768 178.633 240.64C178.473 240.48 178.393 240.16 178.393 239.68V219.52C178.393 219.04 178.457 218.72 178.585 218.56C178.713 218.4 178.921 218.112 179.209 217.696L184.105 209.536L192.409 203.824C192.697 203.632 192.985 203.488 193.273 203.392C193.561 203.264 193.913 203.2 194.329 203.2H202.633C203.433 203.2 203.833 203.6 203.833 204.4V213.376C203.833 213.632 203.801 213.904 203.737 214.192C203.705 214.48 203.561 214.704 203.305 214.864L197.833 217.6L193.609 223.12V235.936L198.073 241.024L203.305 244.336C203.625 244.528 203.785 244.768 203.785 245.056C203.817 245.312 203.833 245.568 203.833 245.824V254.8C203.833 255.6 203.433 256 202.633 256H194.329ZM225.416 256C224.68 256 224.04 255.728 223.496 255.184L213.896 245.584C213.352 245.072 213.08 244.432 213.08 243.664V215.536C213.08 214.768 213.352 214.128 213.896 213.616L223.496 204.016C224.04 203.472 224.68 203.2 225.416 203.2H251.096C251.896 203.2 252.296 203.6 252.296 204.4V254.8C252.296 255.6 251.896 256 251.096 256H241.112C240.696 256 240.376 255.92 240.152 255.76C239.96 255.6 239.736 255.408 239.48 255.184L237.08 252.784L234.68 255.184C234.168 255.728 233.528 256 232.76 256H225.416ZM231.032 244.816H234.392C235.416 244.816 236.12 244.608 236.504 244.192C236.888 243.776 237.08 243.04 237.08 241.984V214.384H231.032C229.976 214.384 229.256 214.592 228.872 215.008C228.488 215.424 228.296 216.16 228.296 217.216V241.984C228.296 243.04 228.488 243.776 228.872 244.192C229.256 244.608 229.976 244.816 231.032 244.816ZM264.679 256C263.879 256 263.479 255.6 263.479 254.8V204.4C263.479 203.6 263.879 203.2 264.679 203.2H271.975C272.583 203.2 273.111 203.472 273.559 204.016L278.263 209.44L283.495 203.776C283.847 203.392 284.295 203.2 284.839 203.2H290.023C290.823 203.2 291.223 203.6 291.223 204.4V214.72C291.223 215.232 291.191 215.584 291.127 215.776C291.063 215.936 290.887 216.112 290.599 216.304L278.695 225.088V254.8C278.695 255.6 278.295 256 277.495 256H264.679ZM296.66 256C295.86 256 295.46 255.6 295.46 254.8V247.024C295.46 246.288 295.7 245.808 296.18 245.584L305.972 239.776V234.784L296.18 229.504C295.7 229.216 295.46 228.72 295.46 228.016V212.704C295.46 212.352 295.508 212.064 295.604 211.84C295.732 211.616 295.908 211.424 296.132 211.264L306.356 203.776C306.708 203.52 306.996 203.36 307.22 203.296C307.444 203.232 307.668 203.2 307.892 203.2H319.556C320.356 203.2 320.756 203.6 320.756 204.4V211.936C320.756 212.48 320.708 212.848 320.612 213.04C320.548 213.232 320.388 213.392 320.132 213.52L311.06 218.416V223.984L320.756 228.784C321.3 229.008 321.572 229.488 321.572 230.224V244.96C321.572 245.76 321.3 246.4 320.756 246.88L310.532 255.376C310.02 255.792 309.38 256 308.612 256H296.66ZM358.916 256C358.18 256 357.54 255.728 356.996 255.184L347.396 245.584C346.852 245.072 346.58 244.432 346.58 243.664V215.536C346.58 214.768 346.852 214.128 347.396 213.616L356.996 204.016C357.54 203.472 358.18 203.2 358.916 203.2H366.26C367.028 203.2 367.668 203.472 368.18 204.016L370.58 206.416V193.216C370.58 192.416 370.98 192.016 371.78 192.016H384.596C385.396 192.016 385.796 192.416 385.796 193.216V254.8C385.796 255.6 385.396 256 384.596 256H374.612C374.196 256 373.876 255.92 373.652 255.76C373.46 255.6 373.236 255.408 372.98 255.184L370.58 252.784L368.18 255.184C367.668 255.728 367.028 256 366.26 256H358.916ZM364.532 244.816H367.892C368.916 244.816 369.62 244.608 370.004 244.192C370.388 243.776 370.58 243.04 370.58 241.984V214.384H364.532C363.476 214.384 362.756 214.592 362.372 215.008C361.988 215.424 361.796 216.16 361.796 217.216V241.984C361.796 243.04 361.988 243.776 362.372 244.192C362.756 244.608 363.476 244.816 364.532 244.816ZM418.483 256C418.163 256 417.811 255.952 417.427 255.856C417.075 255.76 416.739 255.68 416.419 255.616L407.875 253.504L398.083 250.24C397.123 249.92 396.643 248.992 396.643 247.456V215.536C396.643 214.768 396.915 214.128 397.459 213.616L407.059 204.016C407.603 203.472 408.243 203.2 408.979 203.2H424.339C425.075 203.2 425.715 203.472 426.259 204.016L435.859 213.616C436.403 214.128 436.675 214.768 436.675 215.536V235.216H410.899L410.563 241.6L417.379 243.856L429.619 244.72C430.163 244.816 430.435 245.184 430.435 245.824V254.8C430.435 255.6 430.035 256 429.235 256H418.483ZM416.563 227.68H417.475C419.043 227.68 420.291 227.088 421.219 225.904C422.179 224.72 422.659 223.12 422.659 221.104V220.144C422.659 218.16 422.179 216.576 421.219 215.392C420.291 214.208 419.043 213.616 417.475 213.616H416.515C414.979 213.616 413.747 214.208 412.819 215.392C411.923 216.576 411.475 218.16 411.475 220.144V221.104C411.475 223.12 411.923 224.72 412.819 225.904C413.747 227.088 414.995 227.68 416.563 227.68ZM446.378 256C445.578 256 445.178 255.6 445.178 254.8V247.024C445.178 246.288 445.418 245.808 445.898 245.584L455.69 239.776V234.784L445.898 229.504C445.418 229.216 445.178 228.72 445.178 228.016V212.704C445.178 212.352 445.226 212.064 445.322 211.84C445.45 211.616 445.626 211.424 445.85 211.264L456.074 203.776C456.426 203.52 456.714 203.36 456.938 203.296C457.162 203.232 457.386 203.2 457.61 203.2H469.274C470.074 203.2 470.474 203.6 470.474 204.4V211.936C470.474 212.48 470.426 212.848 470.33 213.04C470.266 213.232 470.106 213.392 469.85 213.52L460.778 218.416V223.984L470.474 228.784C471.018 229.008 471.29 229.488 471.29 230.224V244.96C471.29 245.76 471.018 246.4 470.474 246.88L460.25 255.376C459.738 255.792 459.098 256 458.33 256H446.378ZM482.554 256C481.754 256 481.354 255.6 481.354 254.8V204.4C481.354 203.6 481.754 203.2 482.554 203.2H495.322C496.122 203.2 496.522 203.6 496.522 204.4V254.8C496.522 255.6 496.122 256 495.322 256H482.554ZM482.314 199.216C481.674 199.216 481.354 198.896 481.354 198.256V192.16C481.354 191.52 481.674 191.2 482.314 191.2H495.658C496.234 191.2 496.522 191.52 496.522 192.16V198.256C496.522 198.896 496.234 199.216 495.658 199.216H482.314ZM521.234 271.984C520.434 271.984 520.034 271.584 520.034 270.784V263.296C520.034 262.656 520.274 262.304 520.754 262.24L527.762 260.464L532.754 257.824C533.234 257.568 533.474 257.072 533.474 256.336V248.464L528.962 252.64C528.418 253.184 527.778 253.456 527.042 253.456L518.882 253.744C518.146 253.744 517.506 253.488 516.962 252.976L508.178 244.144C507.634 243.632 507.362 242.992 507.362 242.224V215.536C507.362 214.768 507.634 214.128 508.178 213.616L517.778 204.016C518.322 203.472 518.962 203.2 519.698 203.2H545.378C546.178 203.2 546.578 203.6 546.578 204.4V262.096C546.578 262.96 546.306 263.6 545.762 264.016L539.378 268.096L531.314 271.456C530.834 271.648 530.466 271.776 530.21 271.84C529.986 271.936 529.602 271.984 529.057 271.984H521.234ZM525.314 243.376H528.674C529.698 243.376 530.402 243.168 530.786 242.752C531.17 242.336 531.362 241.6 531.362 240.544V214.384H525.314C524.258 214.384 523.538 214.592 523.154 215.008C522.77 215.424 522.578 216.16 522.578 217.216V240.544C522.578 241.6 522.77 242.336 523.154 242.752C523.538 243.168 524.258 243.376 525.314 243.376ZM579.264 256C578.944 256 578.592 255.952 578.208 255.856C577.856 255.76 577.52 255.68 577.2 255.616L568.656 253.504L558.864 250.24C557.904 249.92 557.424 248.992 557.424 247.456V215.536C557.424 214.768 557.696 214.128 558.24 213.616L567.84 204.016C568.384 203.472 569.024 203.2 569.76 203.2H585.12C585.856 203.2 586.496 203.472 587.04 204.016L596.64 213.616C597.184 214.128 597.456 214.768 597.456 215.536V235.216H571.68L571.344 241.6L578.16 243.856L590.4 244.72C590.944 244.816 591.216 245.184 591.216 245.824V254.8C591.216 255.6 590.816 256 590.016 256H579.264ZM577.344 227.68H578.256C579.824 227.68 581.072 227.088 582 225.904C582.96 224.72 583.44 223.12 583.44 221.104V220.144C583.44 218.16 582.96 216.576 582 215.392C581.072 214.208 579.824 213.616 578.256 213.616H577.296C575.76 213.616 574.528 214.208 573.6 215.392C572.704 216.576 572.256 218.16 572.256 220.144V221.104C572.256 223.12 572.704 224.72 573.6 225.904C574.528 227.088 575.776 227.68 577.344 227.68ZM608.648 256C607.848 256 607.448 255.6 607.448 254.8V204.4C607.448 203.6 607.848 203.2 608.648 203.2H615.944C616.552 203.2 617.08 203.472 617.528 204.016L622.232 209.44L627.464 203.776C627.816 203.392 628.264 203.2 628.807 203.2H633.992C634.792 203.2 635.192 203.6 635.192 204.4V214.72C635.192 215.232 635.16 215.584 635.096 215.776C635.032 215.936 634.856 216.112 634.568 216.304L622.664 225.088V254.8C622.664 255.6 622.264 256 621.464 256H608.648ZM640.628 256C639.828 256 639.428 255.6 639.428 254.8V247.024C639.428 246.288 639.668 245.808 640.148 245.584L649.94 239.776V234.784L640.148 229.504C639.668 229.216 639.428 228.72 639.428 228.016V212.704C639.428 212.352 639.476 212.064 639.572 211.84C639.7 211.616 639.876 211.424 640.1 211.264L650.324 203.776C650.676 203.52 650.964 203.36 651.188 203.296C651.412 203.232 651.636 203.2 651.86 203.2H663.524C664.324 203.2 664.724 203.6 664.724 204.4V211.936C664.724 212.48 664.676 212.848 664.58 213.04C664.516 213.232 664.356 213.392 664.1 213.52L655.028 218.416V223.984L664.724 228.784C665.268 229.008 665.54 229.488 665.54 230.224V244.96C665.54 245.76 665.268 246.4 664.724 246.88L654.5 255.376C653.988 255.792 653.348 256 652.58 256H640.628Z" fill="#660D0D"/>
<path d="M21.744 204.784V204.284H21.244V204.784H21.744ZM21.744 220.816H21.244V221.316H21.744V220.816ZM21.744 233.584V233.084H21.244V233.584H21.744ZM6.96 256V255.5C6.63707 255.5 6.48671 255.42 6.41355 255.346C6.34039 255.273 6.26 255.123 6.26 254.8H5.76H5.26C5.26 255.277 5.37961 255.727 5.70645 256.054C6.03329 256.38 6.48293 256.5 6.96 256.5V256ZM5.76 254.8H6.26V193.216H5.76H5.26V254.8H5.76ZM5.76 193.216H6.26C6.26 192.893 6.34039 192.743 6.41355 192.67C6.48671 192.596 6.63707 192.516 6.96 192.516V192.016V191.516C6.48293 191.516 6.03329 191.636 5.70645 191.962C5.37961 192.289 5.26 192.739 5.26 193.216H5.76ZM6.96 192.016V192.516H39.84V192.016V191.516H6.96V192.016ZM39.84 192.016V192.516C40.1629 192.516 40.3133 192.596 40.3864 192.67C40.4596 192.743 40.54 192.893 40.54 193.216H41.04H41.54C41.54 192.739 41.4204 192.289 41.0936 191.962C40.7667 191.636 40.3171 191.516 39.84 191.516V192.016ZM41.04 193.216H40.54V203.584H41.04H41.54V193.216H41.04ZM41.04 203.584H40.54C40.54 203.907 40.4596 204.057 40.3864 204.13C40.3133 204.204 40.1629 204.284 39.84 204.284V204.784V205.284C40.3171 205.284 40.7667 205.164 41.0936 204.838C41.4204 204.511 41.54 204.061 41.54 203.584H41.04ZM39.84 204.784V204.284H21.744V204.784V205.284H39.84V204.784ZM21.744 204.784H21.244V220.816H21.744H22.244V204.784H21.744ZM21.744 220.816V221.316H37.44V220.816V220.316H21.744V220.816ZM37.44 220.816V221.316C37.7629 221.316 37.9133 221.396 37.9865 221.47C38.0596 221.543 38.14 221.693 38.14 222.016H38.64H39.14C39.14 221.539 39.0204 221.089 38.6936 220.762C38.3667 220.436 37.9171 220.316 37.44 220.316V220.816ZM38.64 222.016H38.14V232.384H38.64H39.14V222.016H38.64ZM38.64 232.384H38.14C38.14 232.707 38.0596 232.857 37.9865 232.93C37.9133 233.004 37.7629 233.084 37.44 233.084V233.584V234.084C37.9171 234.084 38.3667 233.964 38.6936 233.638C39.0204 233.311 39.14 232.861 39.14 232.384H38.64ZM37.44 233.584V233.084H21.744V233.584V234.084H37.44V233.584ZM21.744 233.584H21.244V254.8H21.744H22.244V233.584H21.744ZM21.744 254.8H21.244C21.244 255.123 21.1636 255.273 21.0904 255.346C21.0173 255.42 20.8669 255.5 20.544 255.5V256V256.5C21.0211 256.5 21.4707 256.38 21.7976 256.054C22.1244 255.727 22.244 255.277 22.244 254.8H21.744ZM20.544 256V255.5H6.96V256V256.5H20.544V256ZM58.7775 255.184L59.1311 254.83L58.7775 255.184ZM49.1775 245.584L49.5311 245.23L49.5257 245.225L49.5202 245.22L49.1775 245.584ZM49.1775 213.616L49.5202 213.98L49.5257 213.975L49.5311 213.97L49.1775 213.616ZM58.7775 204.016L58.4239 203.662L58.7775 204.016ZM75.4335 255.76L75.1134 256.144L75.1277 256.156L75.1429 256.167L75.4335 255.76ZM74.7615 255.184L74.408 255.538L74.4197 255.549L74.4323 255.56L74.7615 255.184ZM72.3615 252.784L72.7151 252.43L72.3615 252.077L72.0079 252.43L72.3615 252.784ZM69.9615 255.184L69.6079 254.83L69.6026 254.836L69.5974 254.841L69.9615 255.184ZM71.7855 244.192L71.4181 243.853L71.7855 244.192ZM72.3615 214.384H72.8615V213.884H72.3615V214.384ZM64.1535 215.008L64.5209 215.347L64.1535 215.008ZM64.1535 244.192L64.5209 243.853L64.1535 244.192ZM60.6975 256V255.5C60.1007 255.5 59.586 255.285 59.1311 254.83L58.7775 255.184L58.4239 255.538C59.057 256.171 59.8223 256.5 60.6975 256.5V256ZM58.7775 255.184L59.1311 254.83L49.5311 245.23L49.1775 245.584L48.8239 245.938L58.4239 255.538L58.7775 255.184ZM49.1775 245.584L49.5202 245.22C49.0797 244.805 48.8615 244.299 48.8615 243.664H48.3615H47.8615C47.8615 244.565 48.1873 245.339 48.8348 245.948L49.1775 245.584ZM48.3615 243.664H48.8615V215.536H48.3615H47.8615V243.664H48.3615ZM48.3615 215.536H48.8615C48.8615 214.901 49.0797 214.395 49.5202 213.98L49.1775 213.616L48.8348 213.252C48.1873 213.861 47.8615 214.635 47.8615 215.536H48.3615ZM49.1775 213.616L49.5311 213.97L59.1311 204.37L58.7775 204.016L58.4239 203.662L48.8239 213.262L49.1775 213.616ZM58.7775 204.016L59.1311 204.37C59.586 203.915 60.1007 203.7 60.6975 203.7V203.2V202.7C59.8223 202.7 59.057 203.029 58.4239 203.662L58.7775 204.016ZM60.6975 203.2V203.7H86.3775V203.2V202.7H60.6975V203.2ZM86.3775 203.2V203.7C86.7004 203.7 86.8508 203.78 86.924 203.854C86.9971 203.927 87.0775 204.077 87.0775 204.4H87.5775H88.0775C88.0775 203.923 87.9579 203.473 87.6311 203.146C87.3042 202.82 86.8546 202.7 86.3775 202.7V203.2ZM87.5775 204.4H87.0775V254.8H87.5775H88.0775V204.4H87.5775ZM87.5775 254.8H87.0775C87.0775 255.123 86.9971 255.273 86.924 255.346C86.8508 255.42 86.7004 255.5 86.3775 255.5V256V256.5C86.8546 256.5 87.3042 256.38 87.6311 256.054C87.9579 255.727 88.0775 255.277 88.0775 254.8H87.5775ZM86.3775 256V255.5H76.3935V256V256.5H86.3775V256ZM76.3935 256V255.5C76.0315 255.5 75.83 255.429 75.7241 255.353L75.4335 255.76L75.1429 256.167C75.485 256.411 75.9235 256.5 76.3935 256.5V256ZM75.4335 255.76L75.7536 255.376C75.5656 255.219 75.3447 255.03 75.0908 254.808L74.7615 255.184L74.4323 255.56C74.6903 255.786 74.9174 255.981 75.1134 256.144L75.4335 255.76ZM74.7615 255.184L75.1151 254.83L72.7151 252.43L72.3615 252.784L72.0079 253.138L74.408 255.538L74.7615 255.184ZM72.3615 252.784L72.0079 252.43L69.6079 254.83L69.9615 255.184L70.3151 255.538L72.7151 253.138L72.3615 252.784ZM69.9615 255.184L69.5974 254.841C69.1828 255.282 68.676 255.5 68.0415 255.5V256V256.5C68.943 256.5 69.7162 256.174 70.3256 255.527L69.9615 255.184ZM68.0415 256V255.5H60.6975V256V256.5H68.0415V256ZM66.3135 244.816V245.316H69.6735V244.816V244.316H66.3135V244.816ZM69.6735 244.816V245.316C70.733 245.316 71.6214 245.107 72.1529 244.531L71.7855 244.192L71.4181 243.853C71.1816 244.109 70.662 244.316 69.6735 244.316V244.816ZM71.7855 244.192L72.1529 244.531C72.6705 243.97 72.8615 243.069 72.8615 241.984H72.3615H71.8615C71.8615 243.011 71.6685 243.582 71.4181 243.853L71.7855 244.192ZM72.3615 241.984H72.8615V214.384H72.3615H71.8615V241.984H72.3615ZM72.3615 214.384V213.884H66.3135V214.384V214.884H72.3615V214.384ZM66.3135 214.384V213.884C65.2277 213.884 64.3197 214.091 63.7861 214.669L64.1535 215.008L64.5209 215.347C64.7553 215.093 65.2873 214.884 66.3135 214.884V214.384ZM64.1535 215.008L63.7861 214.669C63.2685 215.23 63.0775 216.131 63.0775 217.216H63.5775H64.0775C64.0775 216.189 64.2705 215.618 64.5209 215.347L64.1535 215.008ZM63.5775 217.216H63.0775V241.984H63.5775H64.0775V217.216H63.5775ZM63.5775 241.984H63.0775C63.0775 243.069 63.2685 243.97 63.7861 244.531L64.1535 244.192L64.5209 243.853C64.2705 243.582 64.0775 243.011 64.0775 241.984H63.5775ZM64.1535 244.192L63.7861 244.531C64.3197 245.109 65.2277 245.316 66.3135 245.316V244.816V244.316C65.2873 244.316 64.7553 244.107 64.5209 243.853L64.1535 244.192ZM97.992 245.584L98.2034 246.037L98.2258 246.027L98.2471 246.014L97.992 245.584ZM107.784 239.776L108.039 240.206L108.284 240.061V239.776H107.784ZM107.784 234.784H108.284V234.486L108.021 234.344L107.784 234.784ZM97.992 229.504L97.7347 229.933L97.7446 229.939L97.7547 229.944L97.992 229.504ZM97.416 211.84L96.9819 211.592L96.9677 211.617L96.9564 211.643L97.416 211.84ZM97.944 211.264L98.2346 211.671L98.2394 211.667L97.944 211.264ZM108.168 203.776L107.874 203.372L107.873 203.373L108.168 203.776ZM122.424 213.04L121.977 212.816L121.961 212.848L121.95 212.882L122.424 213.04ZM121.944 213.52L121.72 213.073L121.713 213.076L121.707 213.08L121.944 213.52ZM112.872 218.416L112.635 217.976L112.372 218.118V218.416H112.872ZM112.872 223.984H112.372V224.294L112.65 224.432L112.872 223.984ZM122.568 228.784L122.346 229.232L122.362 229.24L122.378 229.246L122.568 228.784ZM122.568 246.88L122.888 247.265L122.893 247.26L122.899 247.255L122.568 246.88ZM112.344 255.376L112.659 255.764L112.664 255.761L112.344 255.376ZM98.472 256V255.5C98.1491 255.5 97.9987 255.42 97.9256 255.346C97.8524 255.273 97.772 255.123 97.772 254.8H97.272H96.772C96.772 255.277 96.8916 255.727 97.2184 256.054C97.5453 256.38 97.9949 256.5 98.472 256.5V256ZM97.272 254.8H97.772V247.024H97.272H96.772V254.8H97.272ZM97.272 247.024H97.772C97.772 246.394 97.9674 246.147 98.2034 246.037L97.992 245.584L97.7806 245.131C97.0566 245.469 96.772 246.182 96.772 247.024H97.272ZM97.992 245.584L98.2471 246.014L108.039 240.206L107.784 239.776L107.529 239.346L97.7369 245.154L97.992 245.584ZM107.784 239.776H108.284V234.784H107.784H107.284V239.776H107.784ZM107.784 234.784L108.021 234.344L98.2293 229.064L97.992 229.504L97.7547 229.944L107.547 235.224L107.784 234.784ZM97.992 229.504L98.2492 229.075C97.9598 228.902 97.772 228.597 97.772 228.016H97.272H96.772C96.772 228.843 97.0642 229.53 97.7347 229.933L97.992 229.504ZM97.272 228.016H97.772V212.704H97.272H96.772V228.016H97.272ZM97.272 212.704H97.772C97.772 212.392 97.8153 212.178 97.8756 212.037L97.416 211.84L96.9564 211.643C96.8247 211.95 96.772 212.312 96.772 212.704H97.272ZM97.416 211.84L97.8501 212.088C97.9399 211.931 98.0653 211.792 98.2346 211.671L97.944 211.264L97.6534 210.857C97.3746 211.056 97.1481 211.301 96.9819 211.592L97.416 211.84ZM97.944 211.264L98.2394 211.667L108.463 204.179L108.168 203.776L107.873 203.373L97.6486 210.861L97.944 211.264ZM108.168 203.776L108.462 204.18C108.8 203.934 109.031 203.816 109.169 203.777L109.032 203.296L108.895 202.815C108.585 202.904 108.24 203.106 107.874 203.372L108.168 203.776ZM109.032 203.296L109.169 203.777C109.35 203.725 109.528 203.7 109.704 203.7V203.2V202.7C109.432 202.7 109.162 202.739 108.895 202.815L109.032 203.296ZM109.704 203.2V203.7H121.368V203.2V202.7H109.704V203.2ZM121.368 203.2V203.7C121.691 203.7 121.841 203.78 121.914 203.854C121.988 203.927 122.068 204.077 122.068 204.4H122.568H123.068C123.068 203.923 122.948 203.473 122.622 203.146C122.295 202.82 121.845 202.7 121.368 202.7V203.2ZM122.568 204.4H122.068V211.936H122.568H123.068V204.4H122.568ZM122.568 211.936H122.068C122.068 212.195 122.056 212.4 122.036 212.555C122.015 212.718 121.988 212.794 121.977 212.816L122.424 213.04L122.871 213.264C122.956 213.094 123.001 212.89 123.028 212.685C123.056 212.472 123.068 212.221 123.068 211.936H122.568ZM122.424 213.04L121.95 212.882C121.942 212.904 121.907 212.979 121.72 213.073L121.944 213.52L122.168 213.967C122.493 213.805 122.778 213.56 122.898 213.198L122.424 213.04ZM121.944 213.52L121.707 213.08L112.635 217.976L112.872 218.416L113.109 218.856L122.181 213.96L121.944 213.52ZM112.872 218.416H112.372V223.984H112.872H113.372V218.416H112.872ZM112.872 223.984L112.65 224.432L122.346 229.232L122.568 228.784L122.79 228.336L113.094 223.536L112.872 223.984ZM122.568 228.784L122.378 229.246C122.554 229.319 122.668 229.422 122.745 229.559C122.826 229.702 122.884 229.915 122.884 230.224H123.384H123.884C123.884 229.797 123.806 229.402 123.615 229.065C123.42 228.722 123.126 228.473 122.758 228.322L122.568 228.784ZM123.384 230.224H122.884V244.96H123.384H123.884V230.224H123.384ZM123.384 244.96H122.884C122.884 245.633 122.662 246.13 122.237 246.505L122.568 246.88L122.899 247.255C123.562 246.67 123.884 245.887 123.884 244.96H123.384ZM122.568 246.88L122.248 246.495L112.024 254.991L112.344 255.376L112.664 255.761L122.888 247.265L122.568 246.88ZM112.344 255.376L112.029 254.988C111.62 255.32 111.097 255.5 110.424 255.5V256V256.5C111.287 256.5 112.044 256.264 112.659 255.764L112.344 255.376ZM110.424 256V255.5H98.472V256V256.5H110.424V256ZM142.568 255.184L142.921 254.83L142.92 254.829L142.568 255.184ZM134.551 247.216L134.187 247.559L134.193 247.565L134.199 247.571L134.551 247.216ZM133.783 214.384H134.283V213.884H133.783V214.384ZM133.783 203.2V203.7H134.283V203.2H133.783ZM148.952 203.2H148.452V203.7H148.952V203.2ZM148.952 214.384V213.884H148.452V214.384H148.952ZM149.527 241.504L149.883 241.152L149.881 241.15L149.527 241.504ZM154.232 246.256L153.876 246.608L153.886 246.618L153.897 246.628L154.232 246.256ZM144.488 256V255.5C143.891 255.5 143.376 255.285 142.921 254.83L142.568 255.184L142.214 255.538C142.847 256.171 143.612 256.5 144.488 256.5V256ZM142.568 255.184L142.92 254.829L134.904 246.861L134.551 247.216L134.199 247.571L142.215 255.539L142.568 255.184ZM134.551 247.216L134.916 246.873C134.489 246.421 134.283 245.903 134.283 245.296H133.783H133.283C133.283 246.161 133.59 246.923 134.187 247.559L134.551 247.216ZM133.783 245.296H134.283V214.384H133.783H133.283V245.296H133.783ZM133.783 214.384V213.884H131.768V214.384V214.884H133.783V214.384ZM131.768 214.384V213.884C131.445 213.884 131.294 213.804 131.221 213.73C131.148 213.657 131.068 213.507 131.068 213.184H130.568H130.068C130.068 213.661 130.187 214.111 130.514 214.438C130.841 214.764 131.29 214.884 131.768 214.884V214.384ZM130.568 213.184H131.068V204.4H130.568H130.068V213.184H130.568ZM130.568 204.4H131.068C131.068 204.077 131.148 203.927 131.221 203.854C131.294 203.78 131.445 203.7 131.768 203.7V203.2V202.7C131.29 202.7 130.841 202.82 130.514 203.146C130.187 203.473 130.068 203.923 130.068 204.4H130.568ZM131.768 203.2V203.7H133.783V203.2V202.7H131.768V203.2ZM133.783 203.2H134.283V197.2H133.783H133.283V203.2H133.783ZM133.783 197.2H134.283C134.283 196.877 134.364 196.727 134.437 196.654C134.51 196.58 134.661 196.5 134.984 196.5V196V195.5C134.506 195.5 134.057 195.62 133.73 195.946C133.403 196.273 133.283 196.723 133.283 197.2H133.783ZM134.984 196V196.5H147.751V196V195.5H134.984V196ZM147.751 196V196.5C148.074 196.5 148.225 196.58 148.298 196.654C148.371 196.727 148.452 196.877 148.452 197.2H148.952H149.452C149.452 196.723 149.332 196.273 149.005 195.946C148.678 195.62 148.229 195.5 147.751 195.5V196ZM148.952 197.2H148.452V203.2H148.952H149.452V197.2H148.952ZM148.952 203.2V203.7H153.607V203.2V202.7H148.952V203.2ZM153.607 203.2V203.7C153.93 203.7 154.081 203.78 154.154 203.854C154.227 203.927 154.307 204.077 154.307 204.4H154.807H155.307C155.307 203.923 155.188 203.473 154.861 203.146C154.534 202.82 154.085 202.7 153.607 202.7V203.2ZM154.807 204.4H154.307V213.184H154.807H155.307V204.4H154.807ZM154.807 213.184H154.307C154.307 213.507 154.227 213.657 154.154 213.73C154.081 213.804 153.93 213.884 153.607 213.884V214.384V214.884C154.085 214.884 154.534 214.764 154.861 214.438C155.188 214.111 155.307 213.661 155.307 213.184H154.807ZM153.607 214.384V213.884H148.952V214.384V214.884H153.607V214.384ZM148.952 214.384H148.452V240.016H148.952H149.452V214.384H148.952ZM148.952 240.016H148.452C148.452 240.739 148.685 241.368 149.174 241.858L149.527 241.504L149.881 241.15C149.602 240.872 149.452 240.509 149.452 240.016H148.952ZM149.527 241.504L149.172 241.856L153.876 246.608L154.232 246.256L154.587 245.904L149.883 241.152L149.527 241.504ZM154.232 246.256L153.897 246.628C154.065 246.779 154.212 247.087 154.212 247.696H154.712H155.212C155.212 246.961 155.038 246.309 154.566 245.884L154.232 246.256ZM154.712 247.696H154.212V254.8H154.712H155.212V247.696H154.712ZM154.712 254.8H154.212C154.212 255.123 154.131 255.273 154.058 255.346C153.985 255.42 153.834 255.5 153.512 255.5V256V256.5C153.989 256.5 154.438 256.38 154.765 256.054C155.092 255.727 155.212 255.277 155.212 254.8H154.712ZM153.512 256V255.5H144.488V256V256.5H153.512V256ZM192.409 255.376L192.129 255.791L192.136 255.795L192.409 255.376ZM184.585 250.096L184.16 250.36L184.217 250.451L184.305 250.51L184.585 250.096ZM179.209 241.456L178.769 241.693L178.776 241.707L178.784 241.72L179.209 241.456ZM178.633 240.64L178.279 240.994L178.299 241.013L178.32 241.03L178.633 240.64ZM179.209 217.696L179.62 217.981L179.629 217.967L179.637 217.953L179.209 217.696ZM184.105 209.536L183.821 209.124L183.732 209.186L183.676 209.279L184.105 209.536ZM192.409 203.824L192.131 203.408L192.125 203.412L192.409 203.824ZM193.273 203.392L193.431 203.866L193.454 203.859L193.476 203.849L193.273 203.392ZM203.737 214.192L203.249 214.084L203.243 214.11L203.24 214.137L203.737 214.192ZM203.305 214.864L203.528 215.311L203.55 215.301L203.57 215.288L203.305 214.864ZM197.833 217.6L197.609 217.153L197.506 217.204L197.436 217.296L197.833 217.6ZM193.609 223.12L193.212 222.816L193.109 222.951V223.12H193.609ZM193.609 235.936H193.109V236.124L193.233 236.266L193.609 235.936ZM198.073 241.024L197.697 241.354L197.744 241.408L197.805 241.446L198.073 241.024ZM203.305 244.336L203.037 244.759L203.048 244.765L203.305 244.336ZM203.785 245.056H203.285V245.087L203.289 245.118L203.785 245.056ZM194.329 256V255.5C193.803 255.5 193.256 255.33 192.681 254.957L192.409 255.376L192.136 255.795C192.842 256.254 193.575 256.5 194.329 256.5V256ZM192.409 255.376L192.688 254.962L184.864 249.682L184.585 250.096L184.305 250.51L192.129 255.79L192.409 255.376ZM184.585 250.096L185.009 249.832L179.633 241.192L179.209 241.456L178.784 241.72L184.16 250.36L184.585 250.096ZM179.209 241.456L179.649 241.219C179.424 240.801 179.192 240.447 178.945 240.25L178.633 240.64L178.32 241.03C178.394 241.089 178.545 241.279 178.769 241.693L179.209 241.456ZM178.633 240.64L178.986 240.286C178.993 240.293 178.965 240.269 178.938 240.159C178.911 240.052 178.893 239.896 178.893 239.68H178.393H177.893C177.893 239.944 177.914 240.188 177.968 240.401C178.02 240.611 178.112 240.827 178.279 240.994L178.633 240.64ZM178.393 239.68H178.893V219.52H178.393H177.893V239.68H178.393ZM178.393 219.52H178.893C178.893 219.299 178.908 219.135 178.931 219.018C178.956 218.895 178.982 218.864 178.975 218.872L178.585 218.56L178.194 218.248C178.059 218.416 177.99 218.625 177.95 218.822C177.91 219.025 177.893 219.261 177.893 219.52H178.393ZM178.585 218.56L178.975 218.872C179.115 218.697 179.332 218.396 179.62 217.981L179.209 217.696L178.798 217.411C178.509 217.828 178.31 218.103 178.194 218.248L178.585 218.56ZM179.209 217.696L179.637 217.953L184.533 209.793L184.105 209.536L183.676 209.279L178.78 217.439L179.209 217.696ZM184.105 209.536L184.388 209.948L192.692 204.236L192.409 203.824L192.125 203.412L183.821 209.124L184.105 209.536ZM192.409 203.824L192.686 204.24C192.942 204.069 193.19 203.946 193.431 203.866L193.273 203.392L193.115 202.918C192.779 203.03 192.451 203.195 192.131 203.408L192.409 203.824ZM193.273 203.392L193.476 203.849C193.683 203.757 193.961 203.7 194.329 203.7V203.2V202.7C193.864 202.7 193.439 202.771 193.07 202.935L193.273 203.392ZM194.329 203.2V203.7H202.633V203.2V202.7H194.329V203.2ZM202.633 203.2V203.7C202.956 203.7 203.106 203.78 203.179 203.854C203.252 203.927 203.333 204.077 203.333 204.4H203.833H204.333C204.333 203.923 204.213 203.473 203.886 203.146C203.559 202.82 203.11 202.7 202.633 202.7V203.2ZM203.833 204.4H203.333V213.376H203.833H204.333V204.4H203.833ZM203.833 213.376H203.333C203.333 213.59 203.306 213.826 203.249 214.084L203.737 214.192L204.225 214.3C204.296 213.982 204.333 213.674 204.333 213.376H203.833ZM203.737 214.192L203.24 214.137C203.225 214.266 203.172 214.357 203.04 214.44L203.305 214.864L203.57 215.288C203.949 215.051 204.184 214.694 204.234 214.247L203.737 214.192ZM203.305 214.864L203.081 214.417L197.609 217.153L197.833 217.6L198.056 218.047L203.528 215.311L203.305 214.864ZM197.833 217.6L197.436 217.296L193.212 222.816L193.609 223.12L194.006 223.424L198.23 217.904L197.833 217.6ZM193.609 223.12H193.109V235.936H193.609H194.109V223.12H193.609ZM193.609 235.936L193.233 236.266L197.697 241.354L198.073 241.024L198.449 240.694L193.985 235.606L193.609 235.936ZM198.073 241.024L197.805 241.446L203.037 244.758L203.305 244.336L203.572 243.914L198.34 240.602L198.073 241.024ZM203.305 244.336L203.048 244.765C203.268 244.897 203.285 244.996 203.285 245.056H203.785H204.285C204.285 244.54 203.982 244.159 203.562 243.907L203.305 244.336ZM203.785 245.056L203.289 245.118C203.318 245.354 203.333 245.589 203.333 245.824H203.833H204.333C204.333 245.547 204.315 245.27 204.281 244.994L203.785 245.056ZM203.833 245.824H203.333V254.8H203.833H204.333V245.824H203.833ZM203.833 254.8H203.333C203.333 255.123 203.252 255.273 203.179 255.346C203.106 255.42 202.956 255.5 202.633 255.5V256V256.5C203.11 256.5 203.559 256.38 203.886 256.054C204.213 255.727 204.333 255.277 204.333 254.8H203.833ZM202.633 256V255.5H194.329V256V256.5H202.633V256ZM223.496 255.184L223.85 254.83L223.496 255.184ZM213.896 245.584L214.25 245.23L214.244 245.225L214.239 245.22L213.896 245.584ZM213.896 213.616L214.239 213.98L214.244 213.975L214.25 213.97L213.896 213.616ZM223.496 204.016L223.143 203.662L223.496 204.016ZM240.152 255.76L239.832 256.144L239.846 256.156L239.862 256.167L240.152 255.76ZM239.48 255.184L239.127 255.538L239.138 255.549L239.151 255.56L239.48 255.184ZM237.08 252.784L237.434 252.43L237.08 252.077L236.727 252.43L237.08 252.784ZM234.68 255.184L234.327 254.83L234.321 254.836L234.316 254.841L234.68 255.184ZM236.504 244.192L236.137 243.853H236.137L236.504 244.192ZM237.08 214.384H237.58V213.884H237.08V214.384ZM228.872 215.008L229.24 215.347L228.872 215.008ZM228.872 244.192L229.24 243.853L228.872 244.192ZM225.416 256V255.5C224.819 255.5 224.305 255.285 223.85 254.83L223.496 255.184L223.143 255.538C223.776 256.171 224.541 256.5 225.416 256.5V256ZM223.496 255.184L223.85 254.83L214.25 245.23L213.896 245.584L213.543 245.938L223.143 255.538L223.496 255.184ZM213.896 245.584L214.239 245.22C213.798 244.805 213.58 244.299 213.58 243.664H213.08H212.58C212.58 244.565 212.906 245.339 213.554 245.948L213.896 245.584ZM213.08 243.664H213.58V215.536H213.08H212.58V243.664H213.08ZM213.08 215.536H213.58C213.58 214.901 213.798 214.395 214.239 213.98L213.896 213.616L213.554 213.252C212.906 213.861 212.58 214.635 212.58 215.536H213.08ZM213.896 213.616L214.25 213.97L223.85 204.37L223.496 204.016L223.143 203.662L213.543 213.262L213.896 213.616ZM223.496 204.016L223.85 204.37C224.305 203.915 224.819 203.7 225.416 203.7V203.2V202.7C224.541 202.7 223.776 203.029 223.143 203.662L223.496 204.016ZM225.416 203.2V203.7H251.096V203.2V202.7H225.416V203.2ZM251.096 203.2V203.7C251.419 203.7 251.57 203.78 251.643 203.854C251.716 203.927 251.796 204.077 251.796 204.4H252.296H252.796C252.796 203.923 252.677 203.473 252.35 203.146C252.023 202.82 251.573 202.7 251.096 202.7V203.2ZM252.296 204.4H251.796V254.8H252.296H252.796V204.4H252.296ZM252.296 254.8H251.796C251.796 255.123 251.716 255.273 251.643 255.346C251.57 255.42 251.419 255.5 251.096 255.5V256V256.5C251.573 256.5 252.023 256.38 252.35 256.054C252.677 255.727 252.796 255.277 252.796 254.8H252.296ZM251.096 256V255.5H241.112V256V256.5H251.096V256ZM241.112 256V255.5C240.75 255.5 240.549 255.429 240.443 255.353L240.152 255.76L239.862 256.167C240.204 256.411 240.642 256.5 241.112 256.5V256ZM240.152 255.76L240.472 255.376C240.284 255.219 240.063 255.03 239.81 254.808L239.48 255.184L239.151 255.56C239.409 255.786 239.636 255.981 239.832 256.144L240.152 255.76ZM239.48 255.184L239.834 254.83L237.434 252.43L237.08 252.784L236.727 253.138L239.127 255.538L239.48 255.184ZM237.08 252.784L236.727 252.43L234.327 254.83L234.68 255.184L235.034 255.538L237.434 253.138L237.08 252.784ZM234.68 255.184L234.316 254.841C233.902 255.282 233.395 255.5 232.76 255.5V256V256.5C233.662 256.5 234.435 256.174 235.044 255.527L234.68 255.184ZM232.76 256V255.5H225.416V256V256.5H232.76V256ZM231.032 244.816V245.316H234.392V244.816V244.316H231.032V244.816ZM234.392 244.816V245.316C235.452 245.316 236.34 245.107 236.872 244.531L236.504 244.192L236.137 243.853C235.9 244.109 235.381 244.316 234.392 244.316V244.816ZM236.504 244.192L236.872 244.531C237.389 243.97 237.58 243.069 237.58 241.984H237.08H236.58C236.58 243.011 236.387 243.582 236.137 243.853L236.504 244.192ZM237.08 241.984H237.58V214.384H237.08H236.58V241.984H237.08ZM237.08 214.384V213.884H231.032V214.384V214.884H237.08V214.384ZM231.032 214.384V213.884C229.946 213.884 229.038 214.091 228.505 214.669L228.872 215.008L229.24 215.347C229.474 215.093 230.006 214.884 231.032 214.884V214.384ZM228.872 215.008L228.505 214.669C227.987 215.23 227.796 216.131 227.796 217.216H228.296H228.796C228.796 216.189 228.989 215.618 229.24 215.347L228.872 215.008ZM228.296 217.216H227.796V241.984H228.296H228.796V217.216H228.296ZM228.296 241.984H227.796C227.796 243.069 227.987 243.97 228.505 244.531L228.872 244.192L229.24 243.853C228.989 243.582 228.796 243.011 228.796 241.984H228.296ZM228.872 244.192L228.505 244.531C229.038 245.109 229.946 245.316 231.032 245.316V244.816V244.316C230.006 244.316 229.474 244.107 229.24 243.853L228.872 244.192ZM273.559 204.016L273.173 204.334L273.181 204.344L273.559 204.016ZM278.263 209.44L277.885 209.768L278.251 210.19L278.63 209.779L278.263 209.44ZM283.495 203.776L283.862 204.115L283.863 204.114L283.495 203.776ZM291.127 215.776L291.591 215.962L291.596 215.948L291.601 215.934L291.127 215.776ZM290.599 216.304L290.321 215.888L290.311 215.895L290.302 215.902L290.599 216.304ZM278.695 225.088L278.398 224.686L278.195 224.836V225.088H278.695ZM264.679 256V255.5C264.356 255.5 264.205 255.42 264.132 255.346C264.059 255.273 263.979 255.123 263.979 254.8H263.479H262.979C262.979 255.277 263.098 255.727 263.425 256.054C263.752 256.38 264.202 256.5 264.679 256.5V256ZM263.479 254.8H263.979V204.4H263.479H262.979V254.8H263.479ZM263.479 204.4H263.979C263.979 204.077 264.059 203.927 264.132 203.854C264.205 203.78 264.356 203.7 264.679 203.7V203.2V202.7C264.202 202.7 263.752 202.82 263.425 203.146C263.098 203.473 262.979 203.923 262.979 204.4H263.479ZM264.679 203.2V203.7H271.975V203.2V202.7H264.679V203.2ZM271.975 203.2V203.7C272.409 203.7 272.803 203.885 273.173 204.334L273.559 204.016L273.945 203.698C273.419 203.059 272.757 202.7 271.975 202.7V203.2ZM273.559 204.016L273.181 204.344L277.885 209.768L278.263 209.44L278.64 209.112L273.936 203.688L273.559 204.016ZM278.263 209.44L278.63 209.779L283.862 204.115L283.495 203.776L283.127 203.437L277.895 209.101L278.263 209.44ZM283.495 203.776L283.863 204.114C284.116 203.838 284.428 203.7 284.839 203.7V203.2V202.7C284.162 202.7 283.578 202.946 283.126 203.438L283.495 203.776ZM284.839 203.2V203.7H290.023V203.2V202.7H284.839V203.2ZM290.023 203.2V203.7C290.346 203.7 290.496 203.78 290.569 203.854C290.642 203.927 290.723 204.077 290.723 204.4H291.223H291.723C291.723 203.923 291.603 203.473 291.276 203.146C290.949 202.82 290.5 202.7 290.023 202.7V203.2ZM291.223 204.4H290.723V214.72H291.223H291.723V204.4H291.223ZM291.223 214.72H290.723C290.723 215.236 290.688 215.512 290.652 215.618L291.127 215.776L291.601 215.934C291.694 215.656 291.723 215.228 291.723 214.72H291.223ZM291.127 215.776L290.663 215.59C290.664 215.586 290.653 215.615 290.593 215.674C290.536 215.732 290.448 215.804 290.321 215.888L290.599 216.304L290.876 216.72C291.178 216.519 291.467 216.272 291.591 215.962L291.127 215.776ZM290.599 216.304L290.302 215.902L278.398 224.686L278.695 225.088L278.992 225.49L290.896 216.706L290.599 216.304ZM278.695 225.088H278.195V254.8H278.695H279.195V225.088H278.695ZM278.695 254.8H278.195C278.195 255.123 278.114 255.273 278.041 255.346C277.968 255.42 277.818 255.5 277.495 255.5V256V256.5C277.972 256.5 278.421 256.38 278.748 256.054C279.075 255.727 279.195 255.277 279.195 254.8H278.695ZM277.495 256V255.5H264.679V256V256.5H277.495V256ZM296.18 245.584L296.391 246.037L296.413 246.027L296.435 246.014L296.18 245.584ZM305.971 239.776L306.227 240.206L306.471 240.061V239.776H305.971ZM305.971 234.784H306.471V234.486L306.209 234.344L305.971 234.784ZM296.18 229.504L295.922 229.933L295.932 229.939L295.942 229.944L296.18 229.504ZM295.604 211.84L295.169 211.592L295.155 211.617L295.144 211.643L295.604 211.84ZM296.132 211.264L296.422 211.671L296.427 211.667L296.132 211.264ZM306.355 203.776L306.061 203.372L306.06 203.373L306.355 203.776ZM320.612 213.04L320.164 212.816L320.148 212.848L320.137 212.882L320.612 213.04ZM320.132 213.52L319.908 213.073L319.901 213.076L319.894 213.08L320.132 213.52ZM311.06 218.416L310.822 217.976L310.56 218.118V218.416H311.06ZM311.06 223.984H310.56V224.294L310.838 224.432L311.06 223.984ZM320.755 228.784L320.534 229.232L320.549 229.24L320.565 229.246L320.755 228.784ZM320.755 246.88L321.075 247.265L321.081 247.26L321.086 247.255L320.755 246.88ZM310.531 255.376L310.847 255.764L310.851 255.761L310.531 255.376ZM296.66 256V255.5C296.337 255.5 296.186 255.42 296.113 255.346C296.04 255.273 295.96 255.123 295.96 254.8H295.46H294.96C294.96 255.277 295.079 255.727 295.406 256.054C295.733 256.38 296.182 256.5 296.66 256.5V256ZM295.46 254.8H295.96V247.024H295.46H294.96V254.8H295.46ZM295.46 247.024H295.96C295.96 246.394 296.155 246.147 296.391 246.037L296.18 245.584L295.968 245.131C295.244 245.469 294.96 246.182 294.96 247.024H295.46ZM296.18 245.584L296.435 246.014L306.227 240.206L305.971 239.776L305.716 239.346L295.924 245.154L296.18 245.584ZM305.971 239.776H306.471V234.784H305.971H305.471V239.776H305.971ZM305.971 234.784L306.209 234.344L296.417 229.064L296.18 229.504L295.942 229.944L305.734 235.224L305.971 234.784ZM296.18 229.504L296.437 229.075C296.147 228.902 295.96 228.597 295.96 228.016H295.46H294.96C294.96 228.843 295.252 229.53 295.922 229.933L296.18 229.504ZM295.46 228.016H295.96V212.704H295.46H294.96V228.016H295.46ZM295.46 212.704H295.96C295.96 212.392 296.003 212.178 296.063 212.037L295.604 211.84L295.144 211.643C295.012 211.95 294.96 212.312 294.96 212.704H295.46ZM295.604 211.84L296.038 212.088C296.127 211.931 296.253 211.792 296.422 211.671L296.132 211.264L295.841 210.857C295.562 211.056 295.336 211.301 295.169 211.592L295.604 211.84ZM296.132 211.264L296.427 211.667L306.651 204.179L306.355 203.776L306.06 203.373L295.836 210.861L296.132 211.264ZM306.355 203.776L306.65 204.18C306.988 203.934 307.219 203.816 307.357 203.777L307.22 203.296L307.082 202.815C306.772 202.904 306.427 203.106 306.061 203.372L306.355 203.776ZM307.22 203.296L307.357 203.777C307.538 203.725 307.716 203.7 307.892 203.7V203.2V202.7C307.619 202.7 307.349 202.739 307.082 202.815L307.22 203.296ZM307.892 203.2V203.7H319.556V203.2V202.7H307.892V203.2ZM319.556 203.2V203.7C319.878 203.7 320.029 203.78 320.102 203.854C320.175 203.927 320.255 204.077 320.255 204.4H320.755H321.255C321.255 203.923 321.136 203.473 320.809 203.146C320.482 202.82 320.033 202.7 319.556 202.7V203.2ZM320.755 204.4H320.255V211.936H320.755H321.255V204.4H320.755ZM320.755 211.936H320.255C320.255 212.195 320.244 212.4 320.224 212.555C320.202 212.718 320.176 212.794 320.164 212.816L320.612 213.04L321.059 213.264C321.143 213.094 321.189 212.89 321.215 212.685C321.243 212.472 321.255 212.221 321.255 211.936H320.755ZM320.612 213.04L320.137 212.882C320.13 212.904 320.095 212.979 319.908 213.073L320.132 213.52L320.355 213.967C320.68 213.805 320.965 213.56 321.086 213.198L320.612 213.04ZM320.132 213.52L319.894 213.08L310.822 217.976L311.06 218.416L311.297 218.856L320.369 213.96L320.132 213.52ZM311.06 218.416H310.56V223.984H311.06H311.56V218.416H311.06ZM311.06 223.984L310.838 224.432L320.534 229.232L320.755 228.784L320.977 228.336L311.281 223.536L311.06 223.984ZM320.755 228.784L320.565 229.246C320.741 229.319 320.855 229.422 320.932 229.559C321.014 229.702 321.072 229.915 321.072 230.224H321.572H322.072C322.072 229.797 321.993 229.402 321.803 229.065C321.608 228.722 321.314 228.473 320.946 228.322L320.755 228.784ZM321.572 230.224H321.072V244.96H321.572H322.072V230.224H321.572ZM321.572 244.96H321.072C321.072 245.633 320.849 246.13 320.425 246.505L320.755 246.88L321.086 247.255C321.75 246.67 322.072 245.887 322.072 244.96H321.572ZM320.755 246.88L320.436 246.495L310.212 254.991L310.531 255.376L310.851 255.761L321.075 247.265L320.755 246.88ZM310.531 255.376L310.216 254.988C309.808 255.32 309.284 255.5 308.612 255.5V256V256.5C309.475 256.5 310.231 256.264 310.847 255.764L310.531 255.376ZM308.612 256V255.5H296.66V256V256.5H308.612V256ZM356.996 255.184L357.35 254.83L356.996 255.184ZM347.396 245.584L347.75 245.23L347.744 245.225L347.739 245.22L347.396 245.584ZM347.396 213.616L347.739 213.98L347.744 213.975L347.75 213.97L347.396 213.616ZM356.996 204.016L356.643 203.662L356.996 204.016ZM368.18 204.016L367.816 204.359L367.821 204.364L367.827 204.37L368.18 204.016ZM370.58 206.416L370.227 206.77L371.08 207.623V206.416H370.58ZM373.652 255.76L373.332 256.144L373.346 256.156L373.362 256.167L373.652 255.76ZM372.98 255.184L372.627 255.538L372.638 255.549L372.651 255.56L372.98 255.184ZM370.58 252.784L370.934 252.43L370.58 252.077L370.227 252.43L370.58 252.784ZM368.18 255.184L367.827 254.83L367.821 254.836L367.816 254.841L368.18 255.184ZM370.004 244.192L369.637 243.853L370.004 244.192ZM370.58 214.384H371.08V213.884H370.58V214.384ZM362.372 215.008L362.74 215.347L362.372 215.008ZM362.372 244.192L362.74 243.853L362.372 244.192ZM358.916 256V255.5C358.319 255.5 357.805 255.285 357.35 254.83L356.996 255.184L356.643 255.538C357.276 256.171 358.041 256.5 358.916 256.5V256ZM356.996 255.184L357.35 254.83L347.75 245.23L347.396 245.584L347.043 245.938L356.643 255.538L356.996 255.184ZM347.396 245.584L347.739 245.22C347.298 244.805 347.08 244.299 347.08 243.664H346.58H346.08C346.08 244.565 346.406 245.339 347.054 245.948L347.396 245.584ZM346.58 243.664H347.08V215.536H346.58H346.08V243.664H346.58ZM346.58 215.536H347.08C347.08 214.901 347.298 214.395 347.739 213.98L347.396 213.616L347.054 213.252C346.406 213.861 346.08 214.635 346.08 215.536H346.58ZM347.396 213.616L347.75 213.97L357.35 204.37L356.996 204.016L356.643 203.662L347.043 213.262L347.396 213.616ZM356.996 204.016L357.35 204.37C357.805 203.915 358.319 203.7 358.916 203.7V203.2V202.7C358.041 202.7 357.276 203.029 356.643 203.662L356.996 204.016ZM358.916 203.2V203.7H366.26V203.2V202.7H358.916V203.2ZM366.26 203.2V203.7C366.895 203.7 367.402 203.918 367.816 204.359L368.18 204.016L368.544 203.673C367.935 203.026 367.162 202.7 366.26 202.7V203.2ZM368.18 204.016L367.827 204.37L370.227 206.77L370.58 206.416L370.934 206.062L368.534 203.662L368.18 204.016ZM370.58 206.416H371.08V193.216H370.58H370.08V206.416H370.58ZM370.58 193.216H371.08C371.08 192.893 371.161 192.743 371.234 192.67C371.307 192.596 371.457 192.516 371.78 192.516V192.016V191.516C371.303 191.516 370.854 191.636 370.527 191.962C370.2 192.289 370.08 192.739 370.08 193.216H370.58ZM371.78 192.016V192.516H384.596V192.016V191.516H371.78V192.016ZM384.596 192.016V192.516C384.919 192.516 385.07 192.596 385.143 192.67C385.216 192.743 385.296 192.893 385.296 193.216H385.796H386.296C386.296 192.739 386.177 192.289 385.85 191.962C385.523 191.636 385.073 191.516 384.596 191.516V192.016ZM385.796 193.216H385.296V254.8H385.796H386.296V193.216H385.796ZM385.796 254.8H385.296C385.296 255.123 385.216 255.273 385.143 255.346C385.07 255.42 384.919 255.5 384.596 255.5V256V256.5C385.073 256.5 385.523 256.38 385.85 256.054C386.177 255.727 386.296 255.277 386.296 254.8H385.796ZM384.596 256V255.5H374.612V256V256.5H384.596V256ZM374.612 256V255.5C374.25 255.5 374.049 255.429 373.943 255.353L373.652 255.76L373.362 256.167C373.704 256.411 374.142 256.5 374.612 256.5V256ZM373.652 255.76L373.972 255.376C373.784 255.219 373.563 255.03 373.31 254.808L372.98 255.184L372.651 255.56C372.909 255.786 373.136 255.981 373.332 256.144L373.652 255.76ZM372.98 255.184L373.334 254.83L370.934 252.43L370.58 252.784L370.227 253.138L372.627 255.538L372.98 255.184ZM370.58 252.784L370.227 252.43L367.827 254.83L368.18 255.184L368.534 255.538L370.934 253.138L370.58 252.784ZM368.18 255.184L367.816 254.841C367.402 255.282 366.895 255.5 366.26 255.5V256V256.5C367.162 256.5 367.935 256.174 368.544 255.527L368.18 255.184ZM366.26 256V255.5H358.916V256V256.5H366.26V256ZM364.532 244.816V245.316H367.892V244.816V244.316H364.532V244.816ZM367.892 244.816V245.316C368.952 245.316 369.84 245.107 370.372 244.531L370.004 244.192L369.637 243.853C369.4 244.109 368.881 244.316 367.892 244.316V244.816ZM370.004 244.192L370.372 244.531C370.889 243.97 371.08 243.069 371.08 241.984H370.58H370.08C370.08 243.011 369.887 243.582 369.637 243.853L370.004 244.192ZM370.58 241.984H371.08V214.384H370.58H370.08V241.984H370.58ZM370.58 214.384V213.884H364.532V214.384V214.884H370.58V214.384ZM364.532 214.384V213.884C363.446 213.884 362.538 214.091 362.005 214.669L362.372 215.008L362.74 215.347C362.974 215.093 363.506 214.884 364.532 214.884V214.384ZM362.372 215.008L362.005 214.669C361.487 215.23 361.296 216.131 361.296 217.216H361.796H362.296C362.296 216.189 362.489 215.618 362.74 215.347L362.372 215.008ZM361.796 217.216H361.296V241.984H361.796H362.296V217.216H361.796ZM361.796 241.984H361.296C361.296 243.069 361.487 243.97 362.005 244.531L362.372 244.192L362.74 243.853C362.489 243.582 362.296 243.011 362.296 241.984H361.796ZM362.372 244.192L362.005 244.531C362.538 245.109 363.446 245.316 364.532 245.316V244.816V244.316C363.506 244.316 362.974 244.107 362.74 243.853L362.372 244.192ZM417.427 255.856L417.295 256.338L417.305 256.341L417.427 255.856ZM416.419 255.616L416.299 256.101L416.31 256.104L416.321 256.106L416.419 255.616ZM407.875 253.504L407.717 253.978L407.735 253.985L407.755 253.989L407.875 253.504ZM398.083 250.24L397.925 250.714L398.083 250.24ZM397.459 213.616L397.801 213.98L397.807 213.975L397.812 213.97L397.459 213.616ZM407.059 204.016L406.705 203.662L407.059 204.016ZM435.859 213.616L435.505 213.97L435.511 213.975L435.516 213.98L435.859 213.616ZM436.675 235.216V235.716H437.175V235.216H436.675ZM410.899 235.216V234.716H410.424L410.399 235.19L410.899 235.216ZM410.563 241.6L410.063 241.574L410.043 241.955L410.406 242.075L410.563 241.6ZM417.379 243.856L417.222 244.331L417.281 244.35L417.344 244.355L417.379 243.856ZM429.619 244.72L429.706 244.228L429.68 244.223L429.654 244.221L429.619 244.72ZM421.219 225.904L420.83 225.589L420.825 225.596L421.219 225.904ZM421.219 215.392L420.825 215.7L420.83 215.707L421.219 215.392ZM412.819 215.392L412.425 215.084L412.42 215.09L412.819 215.392ZM412.819 225.904L412.42 226.206L412.425 226.212L412.819 225.904ZM418.483 256V255.5C418.212 255.5 417.901 255.459 417.548 255.371L417.427 255.856L417.305 256.341C417.72 256.445 418.114 256.5 418.483 256.5V256ZM417.427 255.856L417.558 255.374C417.197 255.275 416.849 255.192 416.517 255.126L416.419 255.616L416.321 256.106C416.628 256.168 416.953 256.245 417.295 256.338L417.427 255.856ZM416.419 255.616L416.539 255.131L407.995 253.019L407.875 253.504L407.755 253.989L416.299 256.101L416.419 255.616ZM407.875 253.504L408.033 253.03L398.241 249.766L398.083 250.24L397.925 250.714L407.717 253.978L407.875 253.504ZM398.083 250.24L398.241 249.766C397.889 249.648 397.629 249.427 397.447 249.074C397.257 248.707 397.143 248.179 397.143 247.456H396.643H396.143C396.143 248.269 396.269 248.973 396.559 249.534C396.856 250.109 397.317 250.512 397.925 250.714L398.083 250.24ZM396.643 247.456H397.143V215.536H396.643H396.143V247.456H396.643ZM396.643 215.536H397.143C397.143 214.901 397.361 214.395 397.801 213.98L397.459 213.616L397.116 213.252C396.469 213.861 396.143 214.635 396.143 215.536H396.643ZM397.459 213.616L397.812 213.97L407.412 204.37L407.059 204.016L406.705 203.662L397.105 213.262L397.459 213.616ZM407.059 204.016L407.412 204.37C407.867 203.915 408.382 203.7 408.979 203.7V203.2V202.7C408.104 202.7 407.338 203.029 406.705 203.662L407.059 204.016ZM408.979 203.2V203.7H424.339V203.2V202.7H408.979V203.2ZM424.339 203.2V203.7C424.936 203.7 425.45 203.915 425.905 204.37L426.259 204.016L426.612 203.662C425.979 203.029 425.214 202.7 424.339 202.7V203.2ZM426.259 204.016L425.905 204.37L435.505 213.97L435.859 213.616L436.212 213.262L426.612 203.662L426.259 204.016ZM435.859 213.616L435.516 213.98C435.957 214.395 436.175 214.901 436.175 215.536H436.675H437.175C437.175 214.635 436.849 213.861 436.201 213.252L435.859 213.616ZM436.675 215.536H436.175V235.216H436.675H437.175V215.536H436.675ZM436.675 235.216V234.716H410.899V235.216V235.716H436.675V235.216ZM410.899 235.216L410.399 235.19L410.063 241.574L410.563 241.6L411.062 241.626L411.398 235.242L410.899 235.216ZM410.563 241.6L410.406 242.075L417.222 244.331L417.379 243.856L417.536 243.381L410.72 241.125L410.563 241.6ZM417.379 243.856L417.344 244.355L429.584 245.219L429.619 244.72L429.654 244.221L417.414 243.357L417.379 243.856ZM429.619 244.72L429.532 245.212C429.705 245.243 429.784 245.305 429.829 245.365C429.88 245.435 429.935 245.569 429.935 245.824H430.435H430.935C430.935 245.439 430.853 245.069 430.633 244.771C430.405 244.463 430.076 244.293 429.706 244.228L429.619 244.72ZM430.435 245.824H429.935V254.8H430.435H430.935V245.824H430.435ZM430.435 254.8H429.935C429.935 255.123 429.854 255.273 429.781 255.346C429.708 255.42 429.558 255.5 429.235 255.5V256V256.5C429.712 256.5 430.161 256.38 430.488 256.054C430.815 255.727 430.935 255.277 430.935 254.8H430.435ZM429.235 256V255.5H418.483V256V256.5H429.235V256ZM416.563 227.68V228.18H417.475V227.68V227.18H416.563V227.68ZM417.475 227.68V228.18C419.189 228.18 420.585 227.523 421.612 226.212L421.219 225.904L420.825 225.596C419.997 226.653 418.897 227.18 417.475 227.18V227.68ZM421.219 225.904L421.607 226.219C422.66 224.921 423.159 223.197 423.159 221.104H422.659H422.159C422.159 223.043 421.698 224.519 420.83 225.589L421.219 225.904ZM422.659 221.104H423.159V220.144H422.659H422.159V221.104H422.659ZM422.659 220.144H423.159C423.159 218.08 422.659 216.374 421.607 215.077L421.219 215.392L420.83 215.707C421.699 216.778 422.159 218.24 422.159 220.144H422.659ZM421.219 215.392L421.612 215.084C420.585 213.773 419.189 213.116 417.475 213.116V213.616V214.116C418.897 214.116 419.997 214.643 420.825 215.7L421.219 215.392ZM417.475 213.616V213.116H416.515V213.616V214.116H417.475V213.616ZM416.515 213.616V213.116C414.829 213.116 413.45 213.776 412.425 215.084L412.819 215.392L413.212 215.7C414.043 214.64 415.129 214.116 416.515 214.116V213.616ZM412.819 215.392L412.42 215.09C411.439 216.386 410.975 218.087 410.975 220.144H411.475H411.975C411.975 218.233 412.406 216.766 413.217 215.694L412.819 215.392ZM411.475 220.144H410.975V221.104H411.475H411.975V220.144H411.475ZM411.475 221.104H410.975C410.975 223.19 411.438 224.909 412.42 226.206L412.819 225.904L413.217 225.602C412.407 224.532 411.975 223.05 411.975 221.104H411.475ZM412.819 225.904L412.425 226.212C413.453 227.523 414.849 228.18 416.563 228.18V227.68V227.18C415.141 227.18 414.041 226.653 413.212 225.596L412.819 225.904ZM445.898 245.584L446.11 246.037L446.132 246.027L446.153 246.014L445.898 245.584ZM455.69 239.776L455.945 240.206L456.19 240.061V239.776H455.69ZM455.69 234.784H456.19V234.486L455.928 234.344L455.69 234.784ZM445.898 229.504L445.641 229.933L445.651 229.939L445.661 229.944L445.898 229.504ZM445.322 211.84L444.888 211.592L444.874 211.617L444.863 211.643L445.322 211.84ZM445.85 211.264L446.141 211.671L446.146 211.667L445.85 211.264ZM456.074 203.776L455.78 203.372L455.779 203.373L456.074 203.776ZM470.33 213.04L469.883 212.816L469.867 212.848L469.856 212.882L470.33 213.04ZM469.85 213.52L469.627 213.073L469.62 213.076L469.613 213.08L469.85 213.52ZM460.778 218.416L460.541 217.976L460.278 218.118V218.416H460.778ZM460.778 223.984H460.278V224.294L460.556 224.432L460.778 223.984ZM470.474 228.784L470.252 229.232L470.268 229.24L470.284 229.246L470.474 228.784ZM470.474 246.88L470.794 247.265L470.799 247.26L470.805 247.255L470.474 246.88ZM460.25 255.376L460.566 255.764L460.57 255.761L460.25 255.376ZM446.378 256V255.5C446.055 255.5 445.905 255.42 445.832 255.346C445.759 255.273 445.678 255.123 445.678 254.8H445.178H444.678C444.678 255.277 444.798 255.727 445.125 256.054C445.452 256.38 445.901 256.5 446.378 256.5V256ZM445.178 254.8H445.678V247.024H445.178H444.678V254.8H445.178ZM445.178 247.024H445.678C445.678 246.394 445.874 246.147 446.11 246.037L445.898 245.584L445.687 245.131C444.963 245.469 444.678 246.182 444.678 247.024H445.178ZM445.898 245.584L446.153 246.014L455.945 240.206L455.69 239.776L455.435 239.346L445.643 245.154L445.898 245.584ZM455.69 239.776H456.19V234.784H455.69H455.19V239.776H455.69ZM455.69 234.784L455.928 234.344L446.136 229.064L445.898 229.504L445.661 229.944L455.453 235.224L455.69 234.784ZM445.898 229.504L446.155 229.075C445.866 228.902 445.678 228.597 445.678 228.016H445.178H444.678C444.678 228.843 444.97 229.53 445.641 229.933L445.898 229.504ZM445.178 228.016H445.678V212.704H445.178H444.678V228.016H445.178ZM445.178 212.704H445.678C445.678 212.392 445.722 212.178 445.782 212.037L445.322 211.84L444.863 211.643C444.731 211.95 444.678 212.312 444.678 212.704H445.178ZM445.322 211.84L445.756 212.088C445.846 211.931 445.972 211.792 446.141 211.671L445.85 211.264L445.56 210.857C445.281 211.056 445.054 211.301 444.888 211.592L445.322 211.84ZM445.85 211.264L446.146 211.667L456.37 204.179L456.074 203.776L455.779 203.373L445.555 210.861L445.85 211.264ZM456.074 203.776L456.368 204.18C456.707 203.934 456.938 203.816 457.076 203.777L456.938 203.296L456.801 202.815C456.491 202.904 456.146 203.106 455.78 203.372L456.074 203.776ZM456.938 203.296L457.076 203.777C457.257 203.725 457.435 203.7 457.61 203.7V203.2V202.7C457.338 202.7 457.068 202.739 456.801 202.815L456.938 203.296ZM457.61 203.2V203.7H469.274V203.2V202.7H457.61V203.2ZM469.274 203.2V203.7C469.597 203.7 469.748 203.78 469.821 203.854C469.894 203.927 469.974 204.077 469.974 204.4H470.474H470.974C470.974 203.923 470.855 203.473 470.528 203.146C470.201 202.82 469.751 202.7 469.274 202.7V203.2ZM470.474 204.4H469.974V211.936H470.474H470.974V204.4H470.474ZM470.474 211.936H469.974C469.974 212.195 469.963 212.4 469.942 212.555C469.921 212.718 469.894 212.794 469.883 212.816L470.33 213.04L470.777 213.264C470.862 213.094 470.907 212.89 470.934 212.685C470.962 212.472 470.974 212.221 470.974 211.936H470.474ZM470.33 213.04L469.856 212.882C469.849 212.904 469.814 212.979 469.627 213.073L469.85 213.52L470.074 213.967C470.399 213.805 470.684 213.56 470.805 213.198L470.33 213.04ZM469.85 213.52L469.613 213.08L460.541 217.976L460.778 218.416L461.016 218.856L470.088 213.96L469.85 213.52ZM460.778 218.416H460.278V223.984H460.778H461.278V218.416H460.778ZM460.778 223.984L460.556 224.432L470.252 229.232L470.474 228.784L470.696 228.336L461 223.536L460.778 223.984ZM470.474 228.784L470.284 229.246C470.46 229.319 470.574 229.422 470.651 229.559C470.733 229.702 470.79 229.915 470.79 230.224H471.29H471.79C471.79 229.797 471.712 229.402 471.521 229.065C471.326 228.722 471.033 228.473 470.665 228.322L470.474 228.784ZM471.29 230.224H470.79V244.96H471.29H471.79V230.224H471.29ZM471.29 244.96H470.79C470.79 245.633 470.568 246.13 470.143 246.505L470.474 246.88L470.805 247.255C471.468 246.67 471.79 245.887 471.79 244.96H471.29ZM470.474 246.88L470.155 246.495L459.931 254.991L460.25 255.376L460.57 255.761L470.794 247.265L470.474 246.88ZM460.25 255.376L459.935 254.988C459.526 255.32 459.003 255.5 458.33 255.5V256V256.5C459.193 256.5 459.95 256.264 460.566 255.764L460.25 255.376ZM458.33 256V255.5H446.378V256V256.5H458.33V256ZM482.554 256V255.5C482.231 255.5 482.08 255.42 482.007 255.346C481.934 255.273 481.854 255.123 481.854 254.8H481.354H480.854C480.854 255.277 480.973 255.727 481.3 256.054C481.627 256.38 482.077 256.5 482.554 256.5V256ZM481.354 254.8H481.854V204.4H481.354H480.854V254.8H481.354ZM481.354 204.4H481.854C481.854 204.077 481.934 203.927 482.007 203.854C482.08 203.78 482.231 203.7 482.554 203.7V203.2V202.7C482.077 202.7 481.627 202.82 481.3 203.146C480.973 203.473 480.854 203.923 480.854 204.4H481.354ZM482.554 203.2V203.7H495.322V203.2V202.7H482.554V203.2ZM495.322 203.2V203.7C495.645 203.7 495.795 203.78 495.868 203.854C495.941 203.927 496.022 204.077 496.022 204.4H496.522H497.022C497.022 203.923 496.902 203.473 496.575 203.146C496.248 202.82 495.799 202.7 495.322 202.7V203.2ZM496.522 204.4H496.022V254.8H496.522H497.022V204.4H496.522ZM496.522 254.8H496.022C496.022 255.123 495.941 255.273 495.868 255.346C495.795 255.42 495.645 255.5 495.322 255.5V256V256.5C495.799 256.5 496.248 256.38 496.575 256.054C496.902 255.727 497.022 255.277 497.022 254.8H496.522ZM495.322 256V255.5H482.554V256V256.5H495.322V256ZM482.314 199.216V198.716C482.071 198.716 481.98 198.656 481.947 198.622C481.914 198.589 481.854 198.499 481.854 198.256H481.354H480.854C480.854 198.653 480.953 199.043 481.24 199.33C481.527 199.616 481.917 199.716 482.314 199.716V199.216ZM481.354 198.256H481.854V192.16H481.354H480.854V198.256H481.354ZM481.354 192.16H481.854C481.854 191.917 481.914 191.827 481.947 191.794C481.98 191.76 482.071 191.7 482.314 191.7V191.2V190.7C481.917 190.7 481.527 190.8 481.24 191.086C480.953 191.373 480.854 191.763 480.854 192.16H481.354ZM482.314 191.2V191.7H495.658V191.2V190.7H482.314V191.2ZM495.658 191.2V191.7C495.854 191.7 495.914 191.752 495.934 191.774C495.963 191.807 496.022 191.905 496.022 192.16H496.522H497.022C497.022 191.775 496.936 191.393 496.677 191.106C496.409 190.808 496.037 190.7 495.658 190.7V191.2ZM496.522 192.16H496.022V198.256H496.522H497.022V192.16H496.522ZM496.522 198.256H496.022C496.022 198.511 495.963 198.609 495.934 198.642C495.914 198.664 495.854 198.716 495.658 198.716V199.216V199.716C496.037 199.716 496.409 199.608 496.677 199.31C496.936 199.023 497.022 198.641 497.022 198.256H496.522ZM495.658 199.216V198.716H482.314V199.216V199.716H495.658V199.216ZM520.753 262.24L520.82 262.736L520.848 262.732L520.876 262.725L520.753 262.24ZM527.761 260.464L527.884 260.949L527.942 260.934L527.995 260.906L527.761 260.464ZM532.753 257.824L532.987 258.266L532.989 258.265L532.753 257.824ZM533.474 248.464H533.974V247.32L533.134 248.097L533.474 248.464ZM528.961 252.64L528.622 252.273L528.615 252.28L528.608 252.286L528.961 252.64ZM527.042 253.456V252.956H527.033L527.024 252.956L527.042 253.456ZM518.882 253.744V254.244H518.89L518.899 254.244L518.882 253.744ZM516.961 252.976L516.607 253.329L516.613 253.334L516.619 253.34L516.961 252.976ZM508.177 244.144L508.532 243.791L508.526 243.786L508.52 243.78L508.177 244.144ZM508.177 213.616L508.52 213.98L508.526 213.975L508.531 213.97L508.177 213.616ZM517.778 204.016L517.424 203.662L517.778 204.016ZM545.761 264.016L546.031 264.437L546.049 264.426L546.065 264.413L545.761 264.016ZM539.378 268.096L539.57 268.558L539.61 268.541L539.647 268.517L539.378 268.096ZM531.313 271.456L531.499 271.92L531.506 271.918L531.313 271.456ZM530.209 271.84L530.088 271.355L530.049 271.365L530.013 271.38L530.209 271.84ZM530.786 242.752L530.418 242.413L530.786 242.752ZM531.362 214.384H531.862V213.884H531.362V214.384ZM523.154 215.008L523.521 215.347L523.154 215.008ZM523.154 242.752L523.521 242.413L523.154 242.752ZM521.234 271.984V271.484C520.911 271.484 520.76 271.404 520.687 271.33C520.614 271.257 520.534 271.107 520.534 270.784H520.034H519.534C519.534 271.261 519.653 271.711 519.98 272.038C520.307 272.364 520.756 272.484 521.234 272.484V271.984ZM520.034 270.784H520.534V263.296H520.034H519.534V270.784H520.034ZM520.034 263.296H520.534C520.534 263.029 520.585 262.895 520.627 262.834C520.655 262.792 520.699 262.752 520.82 262.736L520.753 262.24L520.687 261.744C520.328 261.792 520.012 261.96 519.8 262.27C519.602 262.561 519.534 262.923 519.534 263.296H520.034ZM520.753 262.24L520.876 262.725L527.884 260.949L527.761 260.464L527.639 259.979L520.631 261.755L520.753 262.24ZM527.761 260.464L527.995 260.906L532.987 258.266L532.753 257.824L532.52 257.382L527.528 260.022L527.761 260.464ZM532.753 257.824L532.989 258.265C533.689 257.892 533.974 257.182 533.974 256.336H533.474H532.974C532.974 256.962 532.778 257.244 532.518 257.383L532.753 257.824ZM533.474 256.336H533.974V248.464H533.474H532.974V256.336H533.474ZM533.474 248.464L533.134 248.097L528.622 252.273L528.961 252.64L529.301 253.007L533.813 248.831L533.474 248.464ZM528.961 252.64L528.608 252.286C528.153 252.741 527.638 252.956 527.042 252.956V253.456V253.956C527.917 253.956 528.682 253.627 529.315 252.994L528.961 252.64ZM527.042 253.456L527.024 252.956L518.864 253.244L518.882 253.744L518.899 254.244L527.059 253.956L527.042 253.456ZM518.882 253.744V253.244C518.275 253.244 517.757 253.038 517.304 252.612L516.961 252.976L516.619 253.34C517.254 253.938 518.016 254.244 518.882 254.244V253.744ZM516.961 252.976L517.316 252.623L508.532 243.791L508.177 244.144L507.823 244.497L516.607 253.329L516.961 252.976ZM508.177 244.144L508.52 243.78C508.08 243.365 507.862 242.859 507.862 242.224H507.362H506.862C506.862 243.125 507.187 243.899 507.835 244.508L508.177 244.144ZM507.362 242.224H507.862V215.536H507.362H506.862V242.224H507.362ZM507.362 215.536H507.862C507.862 214.901 508.08 214.395 508.52 213.98L508.177 213.616L507.835 213.252C507.187 213.861 506.862 214.635 506.862 215.536H507.362ZM508.177 213.616L508.531 213.97L518.131 204.37L517.778 204.016L517.424 203.662L507.824 213.262L508.177 213.616ZM517.778 204.016L518.131 204.37C518.586 203.915 519.101 203.7 519.698 203.7V203.2V202.7C518.822 202.7 518.057 203.029 517.424 203.662L517.778 204.016ZM519.698 203.2V203.7H545.378V203.2V202.7H519.698V203.2ZM545.378 203.2V203.7C545.7 203.7 545.851 203.78 545.924 203.854C545.997 203.927 546.078 204.077 546.078 204.4H546.578H547.078C547.078 203.923 546.958 203.473 546.631 203.146C546.304 202.82 545.855 202.7 545.378 202.7V203.2ZM546.578 204.4H546.078V262.096H546.578H547.078V204.4H546.578ZM546.578 262.096H546.078C546.078 262.849 545.846 263.322 545.458 263.619L545.761 264.016L546.065 264.413C546.765 263.878 547.078 263.071 547.078 262.096H546.578ZM545.761 264.016L545.492 263.595L539.108 267.675L539.378 268.096L539.647 268.517L546.031 264.437L545.761 264.016ZM539.378 268.096L539.185 267.634L531.121 270.994L531.313 271.456L531.506 271.918L539.57 268.558L539.378 268.096ZM531.313 271.456L531.128 270.992C530.653 271.182 530.31 271.299 530.088 271.355L530.209 271.84L530.331 272.325C530.621 272.253 531.014 272.114 531.499 271.92L531.313 271.456ZM530.209 271.84L530.013 271.38C529.89 271.433 529.597 271.484 529.057 271.484V271.984V272.484C529.606 272.484 530.081 272.439 530.406 272.3L530.209 271.84ZM529.057 271.984V271.484H521.234V271.984V272.484H529.057V271.984ZM525.313 243.376V243.876H528.674V243.376V242.876H525.313V243.376ZM528.674 243.376V243.876C529.733 243.876 530.621 243.667 531.153 243.091L530.786 242.752L530.418 242.413C530.182 242.669 529.662 242.876 528.674 242.876V243.376ZM530.786 242.752L531.153 243.091C531.671 242.53 531.862 241.629 531.862 240.544H531.362H530.862C530.862 241.571 530.668 242.142 530.418 242.413L530.786 242.752ZM531.362 240.544H531.862V214.384H531.362H530.862V240.544H531.362ZM531.362 214.384V213.884H525.313V214.384V214.884H531.362V214.384ZM525.313 214.384V213.884C524.228 213.884 523.32 214.091 522.786 214.669L523.154 215.008L523.521 215.347C523.755 215.093 524.287 214.884 525.313 214.884V214.384ZM523.154 215.008L522.786 214.669C522.268 215.23 522.078 216.131 522.078 217.216H522.578H523.078C523.078 216.189 523.271 215.618 523.521 215.347L523.154 215.008ZM522.578 217.216H522.078V240.544H522.578H523.078V217.216H522.578ZM522.578 240.544H522.078C522.078 241.629 522.268 242.53 522.786 243.091L523.154 242.752L523.521 242.413C523.271 242.142 523.078 241.571 523.078 240.544H522.578ZM523.154 242.752L522.786 243.091C523.32 243.669 524.228 243.876 525.313 243.876V243.376V242.876C524.287 242.876 523.755 242.667 523.521 242.413L523.154 242.752ZM578.208 255.856L578.076 256.338L578.087 256.341L578.208 255.856ZM577.2 255.616L577.08 256.101L577.091 256.104L577.102 256.106L577.2 255.616ZM568.656 253.504L568.498 253.978L568.517 253.985L568.536 253.989L568.656 253.504ZM558.864 250.24L558.706 250.714L558.864 250.24ZM558.24 213.616L558.583 213.98L558.588 213.975L558.594 213.97L558.24 213.616ZM567.84 204.016L567.486 203.662L567.84 204.016ZM596.64 213.616L596.286 213.97L596.292 213.975L596.297 213.98L596.64 213.616ZM597.456 235.216V235.716H597.956V235.216H597.456ZM571.68 235.216V234.716H571.206L571.181 235.19L571.68 235.216ZM571.344 241.6L570.845 241.574L570.825 241.955L571.187 242.075L571.344 241.6ZM578.16 243.856L578.003 244.331L578.062 244.35L578.125 244.355L578.16 243.856ZM590.4 244.72L590.487 244.228L590.461 244.223L590.435 244.221L590.4 244.72ZM582 225.904L581.612 225.589L581.606 225.596L582 225.904ZM582 215.392L581.606 215.7L581.612 215.707L582 215.392ZM573.6 215.392L573.206 215.084L573.201 215.09L573.6 215.392ZM573.6 225.904L573.201 226.206L573.206 226.212L573.6 225.904ZM579.264 256V255.5C578.993 255.5 578.683 255.459 578.329 255.371L578.208 255.856L578.087 256.341C578.501 256.445 578.895 256.5 579.264 256.5V256ZM578.208 255.856L578.34 255.374C577.978 255.275 577.631 255.192 577.298 255.126L577.2 255.616L577.102 256.106C577.409 256.168 577.734 256.245 578.076 256.338L578.208 255.856ZM577.2 255.616L577.32 255.131L568.776 253.019L568.656 253.504L568.536 253.989L577.08 256.101L577.2 255.616ZM568.656 253.504L568.814 253.03L559.022 249.766L558.864 250.24L558.706 250.714L568.498 253.978L568.656 253.504ZM558.864 250.24L559.022 249.766C558.67 249.648 558.41 249.427 558.228 249.074C558.038 248.707 557.924 248.179 557.924 247.456H557.424H556.924C556.924 248.269 557.05 248.973 557.34 249.534C557.638 250.109 558.098 250.512 558.706 250.714L558.864 250.24ZM557.424 247.456H557.924V215.536H557.424H556.924V247.456H557.424ZM557.424 215.536H557.924C557.924 214.901 558.142 214.395 558.583 213.98L558.24 213.616L557.897 213.252C557.25 213.861 556.924 214.635 556.924 215.536H557.424ZM558.24 213.616L558.594 213.97L568.194 204.37L567.84 204.016L567.486 203.662L557.886 213.262L558.24 213.616ZM567.84 204.016L568.194 204.37C568.648 203.915 569.163 203.7 569.76 203.7V203.2V202.7C568.885 202.7 568.12 203.029 567.486 203.662L567.84 204.016ZM569.76 203.2V203.7H585.12V203.2V202.7H569.76V203.2ZM585.12 203.2V203.7C585.717 203.7 586.232 203.915 586.686 204.37L587.04 204.016L587.394 203.662C586.76 203.029 585.995 202.7 585.12 202.7V203.2ZM587.04 204.016L586.686 204.37L596.286 213.97L596.64 213.616L596.994 213.262L587.394 203.662L587.04 204.016ZM596.64 213.616L596.297 213.98C596.738 214.395 596.956 214.901 596.956 215.536H597.456H597.956C597.956 214.635 597.63 213.861 596.983 213.252L596.64 213.616ZM597.456 215.536H596.956V235.216H597.456H597.956V215.536H597.456ZM597.456 235.216V234.716H571.68V235.216V235.716H597.456V235.216ZM571.68 235.216L571.181 235.19L570.845 241.574L571.344 241.6L571.843 241.626L572.179 235.242L571.68 235.216ZM571.344 241.6L571.187 242.075L578.003 244.331L578.16 243.856L578.317 243.381L571.501 241.125L571.344 241.6ZM578.16 243.856L578.125 244.355L590.365 245.219L590.4 244.72L590.435 244.221L578.195 243.357L578.16 243.856ZM590.4 244.72L590.313 245.212C590.487 245.243 590.565 245.305 590.61 245.365C590.661 245.435 590.716 245.569 590.716 245.824H591.216H591.716C591.716 245.439 591.635 245.069 591.414 244.771C591.187 244.463 590.857 244.293 590.487 244.228L590.4 244.72ZM591.216 245.824H590.716V254.8H591.216H591.716V245.824H591.216ZM591.216 254.8H590.716C590.716 255.123 590.636 255.273 590.562 255.346C590.489 255.42 590.339 255.5 590.016 255.5V256V256.5C590.493 256.5 590.943 256.38 591.27 256.054C591.596 255.727 591.716 255.277 591.716 254.8H591.216ZM590.016 256V255.5H579.264V256V256.5H590.016V256ZM577.344 227.68V228.18H578.256V227.68V227.18H577.344V227.68ZM578.256 227.68V228.18C579.97 228.18 581.366 227.523 582.394 226.212L582 225.904L581.606 225.596C580.778 226.653 579.678 227.18 578.256 227.18V227.68ZM582 225.904L582.388 226.219C583.441 224.921 583.94 223.197 583.94 221.104H583.44H582.94C582.94 223.043 582.479 224.519 581.612 225.589L582 225.904ZM583.44 221.104H583.94V220.144H583.44H582.94V221.104H583.44ZM583.44 220.144H583.94C583.94 218.08 583.44 216.374 582.388 215.077L582 215.392L581.612 215.707C582.48 216.778 582.94 218.24 582.94 220.144H583.44ZM582 215.392L582.394 215.084C581.366 213.773 579.97 213.116 578.256 213.116V213.616V214.116C579.678 214.116 580.778 214.643 581.606 215.7L582 215.392ZM578.256 213.616V213.116H577.296V213.616V214.116H578.256V213.616ZM577.296 213.616V213.116C575.61 213.116 574.232 213.776 573.206 215.084L573.6 215.392L573.994 215.7C574.824 214.64 575.91 214.116 577.296 214.116V213.616ZM573.6 215.392L573.201 215.09C572.221 216.386 571.756 218.087 571.756 220.144H572.256H572.756C572.756 218.233 573.187 216.766 573.999 215.694L573.6 215.392ZM572.256 220.144H571.756V221.104H572.256H572.756V220.144H572.256ZM572.256 221.104H571.756C571.756 223.19 572.22 224.909 573.201 226.206L573.6 225.904L573.999 225.602C573.188 224.532 572.756 223.05 572.756 221.104H572.256ZM573.6 225.904L573.206 226.212C574.234 227.523 575.63 228.18 577.344 228.18V227.68V227.18C575.922 227.18 574.822 226.653 573.994 225.596L573.6 225.904ZM617.528 204.016L617.141 204.334L617.15 204.344L617.528 204.016ZM622.232 209.44L621.854 209.768L622.22 210.19L622.599 209.779L622.232 209.44ZM627.464 203.776L627.831 204.115L627.832 204.114L627.464 203.776ZM635.096 215.776L635.56 215.962L635.565 215.948L635.57 215.934L635.096 215.776ZM634.568 216.304L634.29 215.888L634.28 215.895L634.271 215.902L634.568 216.304ZM622.664 225.088L622.367 224.686L622.164 224.836V225.088H622.664ZM608.648 256V255.5C608.325 255.5 608.174 255.42 608.101 255.346C608.028 255.273 607.948 255.123 607.948 254.8H607.448H606.948C606.948 255.277 607.067 255.727 607.394 256.054C607.721 256.38 608.17 256.5 608.648 256.5V256ZM607.448 254.8H607.948V204.4H607.448H606.948V254.8H607.448ZM607.448 204.4H607.948C607.948 204.077 608.028 203.927 608.101 203.854C608.174 203.78 608.325 203.7 608.648 203.7V203.2V202.7C608.17 202.7 607.721 202.82 607.394 203.146C607.067 203.473 606.948 203.923 606.948 204.4H607.448ZM608.648 203.2V203.7H615.943V203.2V202.7H608.648V203.2ZM615.943 203.2V203.7C616.377 203.7 616.772 203.885 617.142 204.334L617.528 204.016L617.913 203.698C617.387 203.059 616.726 202.7 615.943 202.7V203.2ZM617.528 204.016L617.15 204.344L621.854 209.768L622.232 209.44L622.609 209.112L617.905 203.688L617.528 204.016ZM622.232 209.44L622.599 209.779L627.831 204.115L627.464 203.776L627.096 203.437L621.864 209.101L622.232 209.44ZM627.464 203.776L627.832 204.114C628.085 203.838 628.397 203.7 628.807 203.7V203.2V202.7C628.13 202.7 627.546 202.946 627.095 203.438L627.464 203.776ZM628.807 203.2V203.7H633.992V203.2V202.7H628.807V203.2ZM633.992 203.2V203.7C634.314 203.7 634.465 203.78 634.538 203.854C634.611 203.927 634.692 204.077 634.692 204.4H635.192H635.692C635.692 203.923 635.572 203.473 635.245 203.146C634.918 202.82 634.469 202.7 633.992 202.7V203.2ZM635.192 204.4H634.692V214.72H635.192H635.692V204.4H635.192ZM635.192 214.72H634.692C634.692 215.236 634.656 215.512 634.621 215.618L635.096 215.776L635.57 215.934C635.663 215.656 635.692 215.228 635.692 214.72H635.192ZM635.096 215.776L634.631 215.59C634.633 215.586 634.622 215.615 634.562 215.674C634.504 215.732 634.417 215.804 634.29 215.888L634.568 216.304L634.845 216.72C635.147 216.519 635.436 216.272 635.56 215.962L635.096 215.776ZM634.568 216.304L634.271 215.902L622.367 224.686L622.664 225.088L622.96 225.49L634.864 216.706L634.568 216.304ZM622.664 225.088H622.164V254.8H622.664H623.164V225.088H622.664ZM622.664 254.8H622.164C622.164 255.123 622.083 255.273 622.01 255.346C621.937 255.42 621.786 255.5 621.464 255.5V256V256.5C621.941 256.5 622.39 256.38 622.717 256.054C623.044 255.727 623.164 255.277 623.164 254.8H622.664ZM621.464 256V255.5H608.648V256V256.5H621.464V256ZM640.148 245.584L640.36 246.037L640.382 246.027L640.403 246.014L640.148 245.584ZM649.94 239.776L650.195 240.206L650.44 240.061V239.776H649.94ZM649.94 234.784H650.44V234.486L650.178 234.344L649.94 234.784ZM640.148 229.504L639.891 229.933L639.901 229.939L639.911 229.944L640.148 229.504ZM639.572 211.84L639.138 211.592L639.124 211.617L639.113 211.643L639.572 211.84ZM640.1 211.264L640.391 211.671L640.396 211.667L640.1 211.264ZM650.324 203.776L650.03 203.372L650.029 203.373L650.324 203.776ZM664.58 213.04L664.133 212.816L664.117 212.848L664.106 212.882L664.58 213.04ZM664.1 213.52L663.877 213.073L663.87 213.076L663.863 213.08L664.1 213.52ZM655.028 218.416L654.791 217.976L654.528 218.118V218.416H655.028ZM655.028 223.984H654.528V224.294L654.806 224.432L655.028 223.984ZM664.724 228.784L664.502 229.232L664.518 229.24L664.534 229.246L664.724 228.784ZM664.724 246.88L665.044 247.265L665.049 247.26L665.055 247.255L664.724 246.88ZM654.5 255.376L654.816 255.764L654.82 255.761L654.5 255.376ZM640.628 256V255.5C640.305 255.5 640.155 255.42 640.082 255.346C640.009 255.273 639.928 255.123 639.928 254.8H639.428H638.928C638.928 255.277 639.048 255.727 639.375 256.054C639.702 256.38 640.151 256.5 640.628 256.5V256ZM639.428 254.8H639.928V247.024H639.428H638.928V254.8H639.428ZM639.428 247.024H639.928C639.928 246.394 640.124 246.147 640.36 246.037L640.148 245.584L639.937 245.131C639.213 245.469 638.928 246.182 638.928 247.024H639.428ZM640.148 245.584L640.403 246.014L650.195 240.206L649.94 239.776L649.685 239.346L639.893 245.154L640.148 245.584ZM649.94 239.776H650.44V234.784H649.94H649.44V239.776H649.94ZM649.94 234.784L650.178 234.344L640.386 229.064L640.148 229.504L639.911 229.944L649.703 235.224L649.94 234.784ZM640.148 229.504L640.406 229.075C640.116 228.902 639.928 228.597 639.928 228.016H639.428H638.928C638.928 228.843 639.22 229.53 639.891 229.933L640.148 229.504ZM639.428 228.016H639.928V212.704H639.428H638.928V228.016H639.428ZM639.428 212.704H639.928C639.928 212.392 639.972 212.178 640.032 212.037L639.572 211.84L639.113 211.643C638.981 211.95 638.928 212.312 638.928 212.704H639.428ZM639.572 211.84L640.006 212.088C640.096 211.931 640.222 211.792 640.391 211.671L640.1 211.264L639.81 210.857C639.531 211.056 639.304 211.301 639.138 211.592L639.572 211.84ZM640.1 211.264L640.396 211.667L650.62 204.179L650.324 203.776L650.029 203.373L639.805 210.861L640.1 211.264ZM650.324 203.776L650.618 204.18C650.957 203.934 651.188 203.816 651.326 203.777L651.188 203.296L651.051 202.815C650.741 202.904 650.396 203.106 650.03 203.372L650.324 203.776ZM651.188 203.296L651.326 203.777C651.507 203.725 651.685 203.7 651.86 203.7V203.2V202.7C651.588 202.7 651.318 202.739 651.051 202.815L651.188 203.296ZM651.86 203.2V203.7H663.524V203.2V202.7H651.86V203.2ZM663.524 203.2V203.7C663.847 203.7 663.998 203.78 664.071 203.854C664.144 203.927 664.224 204.077 664.224 204.4H664.724H665.224C665.224 203.923 665.105 203.473 664.778 203.146C664.451 202.82 664.001 202.7 663.524 202.7V203.2ZM664.724 204.4H664.224V211.936H664.724H665.224V204.4H664.724ZM664.724 211.936H664.224C664.224 212.195 664.213 212.4 664.192 212.555C664.171 212.718 664.144 212.794 664.133 212.816L664.58 213.04L665.027 213.264C665.112 213.094 665.157 212.89 665.184 212.685C665.212 212.472 665.224 212.221 665.224 211.936H664.724ZM664.58 213.04L664.106 212.882C664.099 212.904 664.064 212.979 663.877 213.073L664.1 213.52L664.324 213.967C664.649 213.805 664.934 213.56 665.055 213.198L664.58 213.04ZM664.1 213.52L663.863 213.08L654.791 217.976L655.028 218.416L655.266 218.856L664.338 213.96L664.1 213.52ZM655.028 218.416H654.528V223.984H655.028H655.528V218.416H655.028ZM655.028 223.984L654.806 224.432L664.502 229.232L664.724 228.784L664.946 228.336L655.25 223.536L655.028 223.984ZM664.724 228.784L664.534 229.246C664.71 229.319 664.824 229.422 664.901 229.559C664.983 229.702 665.04 229.915 665.04 230.224H665.54H666.04C666.04 229.797 665.962 229.402 665.771 229.065C665.576 228.722 665.283 228.473 664.915 228.322L664.724 228.784ZM665.54 230.224H665.04V244.96H665.54H666.04V230.224H665.54ZM665.54 244.96H665.04C665.04 245.633 664.818 246.13 664.393 246.505L664.724 246.88L665.055 247.255C665.718 246.67 666.04 245.887 666.04 244.96H665.54ZM664.724 246.88L664.405 246.495L654.181 254.991L654.5 255.376L654.82 255.761L665.044 247.265L664.724 246.88ZM654.5 255.376L654.185 254.988C653.776 255.32 653.253 255.5 652.58 255.5V256V256.5C653.443 256.5 654.2 256.264 654.816 255.764L654.5 255.376ZM652.58 256V255.5H640.628V256V256.5H652.58V256Z" fill="#FFA2A2"/>
</g>
<path d="M348.743 313.693C348.743 306.844 342.629 301.333 335.029 301.333C327.429 301.333 321.314 306.844 321.314 313.693V354.891C321.314 361.74 327.429 367.25 335.029 367.25C342.629 367.25 348.743 361.74 348.743 354.891V313.693ZM294.914 416.688H375.143C379.029 416.688 382.457 418.902 383.771 422.146L394.629 449.646H275.429L286.343 422.146C287.657 418.85 291.086 416.688 294.971 416.688H294.914ZM251.886 411.074L235.714 451.912C224.229 456.289 216.171 466.537 216.171 478.484V499.083V532.042V548.521C216.171 557.636 224.343 565 234.457 565H243.6C253.714 565 261.886 557.636 261.886 548.521V532.042H408.171V548.521C408.171 557.636 416.343 565 426.457 565H435.6C445.714 565 453.886 557.636 453.886 548.521V532.042V499.083V478.484C453.886 466.537 445.829 456.289 434.343 451.912L418.171 411.074C411.657 394.698 394.457 383.729 375.143 383.729H294.914C275.6 383.729 258.343 394.698 251.886 411.074ZM261.886 478.484C265.523 478.484 269.011 479.787 271.583 482.104C274.155 484.422 275.6 487.566 275.6 490.844C275.6 494.122 274.155 497.265 271.583 499.583C269.011 501.901 265.523 503.203 261.886 503.203C258.248 503.203 254.76 501.901 252.188 499.583C249.616 497.265 248.171 494.122 248.171 490.844C248.171 487.566 249.616 484.422 252.188 482.104C254.76 479.787 258.248 478.484 261.886 478.484ZM394.457 490.844C394.457 487.566 395.902 484.422 398.474 482.104C401.046 479.787 404.534 478.484 408.171 478.484C411.809 478.484 415.297 479.787 417.869 482.104C420.441 484.422 421.886 487.566 421.886 490.844C421.886 494.122 420.441 497.265 417.869 499.583C415.297 501.901 411.809 503.203 408.171 503.203C404.534 503.203 401.046 501.901 398.474 499.583C395.902 497.265 394.457 494.122 394.457 490.844ZM211.029 321.417C205.657 326.258 205.657 334.086 211.029 338.875L238.457 363.594C243.829 368.434 252.514 368.434 257.829 363.594C263.143 358.753 263.2 350.925 257.829 346.136L230.457 321.417C225.086 316.577 216.4 316.577 211.086 321.417H211.029ZM439.6 321.417L412.171 346.136C406.8 350.977 406.8 358.804 412.171 363.594C417.543 368.383 426.229 368.434 431.543 363.594L458.971 338.875C464.343 334.034 464.343 326.207 458.971 321.417C453.6 316.628 444.914 316.577 439.6 321.417Z" fill="black"/>
<defs>
<filter id="filter0_d_5_111" x="161.063" y="42.688" width="350.02" height="97.312" filterUnits="userSpaceOnUse" color-interpolation-filters="sRGB">
<feFlood flood-opacity="0" result="BackgroundImageFix"/>
<feColorMatrix in="SourceAlpha" type="matrix" values="0 0 0 0 0 0 0 0 0 0 0 0 0 0 0 0 0 0 127 0" result="hardAlpha"/>
<feOffset dy="8"/>
<feGaussianBlur stdDeviation="2"/>
<feComposite in2="hardAlpha" operator="out"/>
<feColorMatrix type="matrix" values="0 0 0 0 0 0 0 0 0 0 0 0 0 0 0 0 0 0 0.25 0"/>
<feBlend mode="normal" in2="BackgroundImageFix" result="effect1_dropShadow_5_111"/>
<feBlend mode="normal" in="SourceGraphic" in2="effect1_dropShadow_5_111" result="shape"/>
</filter>
<filter id="filter1_d_5_111" x="1.26001" y="190.7" width="668.78" height="92.7841" filterUnits="userSpaceOnUse" color-interpolation-filters="sRGB">
<feFlood flood-opacity="0" result="BackgroundImageFix"/>
<feColorMatrix in="SourceAlpha" type="matrix" values="0 0 0 0 0 0 0 0 0 0 0 0 0 0 0 0 0 0 127 0" result="hardAlpha"/>
<feOffset dy="7"/>
<feGaussianBlur stdDeviation="2"/>
<feComposite in2="hardAlpha" operator="out"/>
<feColorMatrix type="matrix" values="0 0 0 0 0 0 0 0 0 0 0 0 0 0 0 0 0 0 0.25 0"/>
<feBlend mode="normal" in2="BackgroundImageFix" result="effect1_dropShadow_5_111"/>
<feBlend mode="normal" in="SourceGraphic" in2="effect1_dropShadow_5_111" result="shape"/>
</filter>
</defs>
</svg>
